<svg width="721" height="780" viewBox="0 0 721 780" fill="none" xmlns="http://www.w3.org/2000/svg">
<g filter="url(#filter0_d_620_5623)">
<g clip-path="url(#clip0_620_5623)">
<mask id="mask0_620_5623" style="mask-type:luminance" maskUnits="userSpaceOnUse" x="9" y="3" width="780" height="781">
<path d="M789 3.78906L9 3.78906L9 783.789L789 783.789L789 3.78906Z" fill="white"/>
</mask>
<g mask="url(#mask0_620_5623)">
<path d="M9 781.898L789 781.898L789 1.89844L9 1.89844L9 781.898Z" fill="#CFD5EE"/>
</g>
<mask id="mask1_620_5623" style="mask-type:luminance" maskUnits="userSpaceOnUse" x="9" y="0" width="780" height="780">
<path d="M9 780L789 780L789 0L9 -3.50162e-08L9 780Z" fill="white"/>
</mask>
<g mask="url(#mask1_620_5623)">
<path d="M789 0H9V575.905H789V0Z" fill="#EEF2FA"/>
</g>
<mask id="mask2_620_5623" style="mask-type:luminance" maskUnits="userSpaceOnUse" x="9" y="0" width="780" height="780">
<path d="M9 780L789 780L789 0L9 -3.50162e-08L9 780Z" fill="white"/>
</mask>
<g mask="url(#mask2_620_5623)">
<path d="M646.199 180.476C646.277 180.476 646.277 180.352 646.199 180.352C646.121 180.352 646.121 180.476 646.199 180.476Z" fill="#CFD5EE"/>
</g>
<mask id="mask3_620_5623" style="mask-type:luminance" maskUnits="userSpaceOnUse" x="9" y="0" width="780" height="780">
<path d="M9 780L789 780L789 0L9 -3.50162e-08L9 780Z" fill="white"/>
</mask>
<g mask="url(#mask3_620_5623)">
<path d="M921.069 548.234H-266.918V577.796H921.069V548.234Z" fill="#EEF2FA"/>
</g>
<mask id="mask4_620_5623" style="mask-type:luminance" maskUnits="userSpaceOnUse" x="9" y="0" width="780" height="780">
<path d="M9 780L789 780L789 0L9 -3.50162e-08L9 780Z" fill="white"/>
</mask>
<g mask="url(#mask4_620_5623)">
<mask id="mask5_620_5623" style="mask-type:luminance" maskUnits="userSpaceOnUse" x="-137" y="577" width="1171" height="205">
<path d="M-136.078 781.898L1033.92 781.898L1033.92 577.289L-136.078 577.289L-136.078 781.898Z" fill="white"/>
</mask>
<g mask="url(#mask5_620_5623)">
<path d="M317.945 554.891L105.645 1013.86" stroke="#E1E6F3" stroke-width="0.9891" stroke-miterlimit="10"/>
<path d="M463.477 554.891L371.016 1027.26" stroke="#E1E6F3" stroke-width="0.9891" stroke-miterlimit="10"/>
<path d="M620.989 554.891L614.141 1042.34" stroke="#E1E6F3" stroke-width="0.9891" stroke-miterlimit="10"/>
<path d="M134.738 578.336L-123.785 1003.81" stroke="#E1E6F3" stroke-width="0.9891" stroke-miterlimit="10"/>
<path d="M1050.74 670.469H-152.895" stroke="#E1E6F3" stroke-width="0.9891" stroke-miterlimit="10"/>
<path d="M1050.74 748.438H-152.895" stroke="#E1E6F3" stroke-width="0.9891" stroke-miterlimit="10"/>
</g>
</g>
<mask id="mask6_620_5623" style="mask-type:luminance" maskUnits="userSpaceOnUse" x="9" y="0" width="780" height="780">
<path d="M9 780L789 780L789 0L9 -3.50162e-08L9 780Z" fill="white"/>
</mask>
<g mask="url(#mask6_620_5623)">
<path d="M654.826 443.765C654.763 437.978 656.573 431.441 659.989 426.761C661.393 424.843 662.844 422.877 664.841 421.613C665.715 421.052 666.697 420.646 667.524 420.007C668.71 419.086 669.521 417.76 670.597 416.715C671.908 415.436 673.639 414.609 675.449 414.375C673.78 415.139 672.719 416.793 671.955 418.462C671.206 420.131 670.66 421.925 669.583 423.407C663.733 431.551 660.676 441.207 659.818 451.222" fill="#4B742A"/>
<path d="M650.489 450.953C650.926 446.757 651.347 442.561 651.55 438.349C651.706 434.729 652.626 430.486 650.863 427.195C649.912 425.416 648.633 423.794 648.055 421.875C647.073 418.661 648.071 414.793 646.059 412.109C648.586 414.574 651.129 417.055 653.656 419.519C654.607 420.455 655.575 421.391 656.277 422.546C656.76 423.341 657.088 424.231 657.431 425.104C660.551 433.31 664.17 443.013 660.348 451.671" fill="#568336"/>
<path d="M656.089 468.224C651.378 473.466 641.3 466.009 637.681 461.891C633.921 457.601 631.831 451.798 627.182 448.49C623.438 445.823 618.633 445.261 614.062 444.778C620.864 442.063 624.717 443.155 631.691 445.355C638.679 447.554 655.215 459.208 653.546 467.21" fill="#74AA51"/>
<path d="M653.046 425.273C655.995 432.511 657.336 440.405 656.837 448.205C656.4 454.835 654.216 461.169 655.964 467.783C656.026 468.033 656.4 467.923 656.354 467.674C654.918 460.108 657.383 452.994 657.446 445.444C657.508 438.408 655.948 431.685 653.249 425.226C653.187 425.117 653 425.164 653.046 425.273Z" fill="#90CC6A"/>
<path d="M665.416 425.15C661.828 430.376 661.251 436.647 660.486 442.794C659.504 450.797 659.098 458.909 656.711 466.646C656.649 466.849 656.961 466.927 657.039 466.74C661.984 453.527 658.022 437.552 665.588 425.244C665.65 425.135 665.478 425.041 665.416 425.15Z" fill="#90CC6A"/>
<path d="M654.187 459.659C651.644 457.678 650.147 453.497 649.258 450.408C647.557 444.48 647.573 438.381 642.394 434.122C641.224 433.155 639.898 432.359 638.962 431.158C636.949 428.584 637.058 424.606 634.531 422.531C636.403 424.06 637.792 425.324 640.256 425.854C642.378 426.306 643.876 426.899 645.779 428.022C649.835 430.409 653.064 434.2 654.92 438.521C657.931 445.51 657.666 453.56 655.778 460.923" fill="#74AA51"/>
<path d="M651.845 468.721C651.626 461.482 655.449 454.431 658.069 447.957C660.94 440.875 663.592 433.917 671.142 430.532C672.203 430.064 673.311 429.69 674.325 429.112C675.978 428.176 677.273 426.757 678.771 425.602C680.268 424.448 682.125 423.512 683.997 423.84C680.955 424.869 679.987 428.629 677.819 430.984C676.899 431.983 675.744 432.732 674.73 433.652C669.535 438.379 669.083 445.352 667.32 451.67C664.793 460.687 663.358 466.303 654.31 468.721" fill="#4B742A"/>
<path d="M656.229 467.767C660.893 461.012 662.297 454.257 663.826 446.348C664.747 441.559 667.336 437.487 671.096 434.398C672.359 433.369 673.795 432.682 675.089 431.715C676.696 430.514 677.741 428.221 679.442 427.254C679.613 427.16 679.457 426.895 679.286 426.988C678.116 427.566 677.679 428.174 676.868 429.172C675.417 430.982 673.639 431.949 671.798 433.291C668.74 435.506 665.995 438.876 664.559 442.37C663.093 445.911 663.046 449.905 662.157 453.602C660.956 458.625 658.85 463.336 656.073 467.673C656.011 467.782 656.167 467.86 656.229 467.767Z" fill="#90CC6A"/>
<path d="M644.872 430.779C652.22 435.599 652.298 444.772 652.657 452.65C652.875 457.361 651.705 464.522 654.95 468.437C655.044 468.546 655.246 468.406 655.153 468.281C652.813 464.756 653.374 459.795 653.203 455.723C653.016 451.652 653.016 447.502 652.423 443.446C651.658 438.251 649.584 433.446 644.982 430.607C644.857 430.545 644.763 430.716 644.872 430.779Z" fill="#90CC6A"/>
<path d="M655.403 468.158C659.225 467.737 662.891 466.146 665.824 463.665C672.033 458.408 674.529 449.719 680.816 444.54C683.281 442.512 686.276 441.108 689.427 440.515C686.9 438.627 683.468 438.471 680.348 438.924C668.476 440.655 658.804 450.015 653.609 460.826" fill="#699D46"/>
<path d="M651.518 466.817C648.757 462.558 646.183 458.19 643.484 453.9C641.783 451.186 639.958 448.534 638.258 445.819C636.854 443.589 635.153 441.701 633.843 439.361C632.813 437.505 631.441 435.601 629.366 435.071C627.79 434.665 626.09 435.165 624.53 434.728C622.767 434.229 621.472 432.435 621.55 430.609C621.831 431.577 622.97 432.045 623.968 431.982C624.967 431.92 625.903 431.483 626.87 431.218C631.051 430.079 635.325 432.294 639.085 434.431C641.175 435.617 643.328 436.865 644.794 438.768C645.777 440.047 646.401 441.576 647.009 443.074C649.958 450.359 653.842 456.911 655.558 464.758" fill="#4B742A"/>
<path d="M622.519 444.946C630.163 445.82 634.594 452.387 639.445 457.535C643.673 462.012 649.008 465.632 654.343 468.658C654.546 468.783 654.733 468.471 654.531 468.346C647.807 464.103 641.988 459.672 636.653 453.776C632.862 449.595 628.354 445.398 622.519 444.759C622.41 444.743 622.41 444.93 622.519 444.946Z" fill="#90CC6A"/>
<path d="M626.885 432.781C630.192 432.89 632.766 432.875 635.293 435.495C636.37 436.619 637.118 437.866 638.398 438.88C640.004 440.128 641.814 441.08 643.187 442.609C645.028 444.668 646.042 447.476 646.666 450.128C648.21 456.649 648.631 464.324 654.356 468.63C654.481 468.723 654.653 468.505 654.528 468.396C650.643 465.026 648.896 459.488 647.867 454.48C647.056 450.549 646.744 446.618 644.279 443.249C643.265 441.86 642.032 440.909 640.675 439.895C638.538 438.303 636.947 436.837 635.246 434.84C632.984 432.172 630.161 432.672 626.869 432.578C626.76 432.578 626.76 432.781 626.885 432.781Z" fill="#90CC6A"/>
<path d="M656.683 467.942C661.285 464.588 660.427 457.88 664.233 453.933C665.263 452.857 666.651 452.155 667.774 451.188C669.178 449.987 670.208 448.473 671.44 447.101C674.701 443.466 679.115 442.545 683.655 441.422C683.842 441.375 683.749 441.126 683.577 441.141C680.02 441.672 676.292 442.483 673.328 444.636C670.317 446.82 668.149 450.111 665.216 452.483C660.286 456.476 661.253 463.715 656.558 467.786C656.48 467.864 656.589 468.02 656.683 467.942Z" fill="#90CC6A"/>
<path d="M653.719 464.195H673.39L668.648 495.957H653.719H638.805L634.062 464.195H653.719Z" fill="#FCFBFC"/>
<path d="M707.771 660.182L754.961 547.487L747.411 544.492L704.464 658.871C704.027 660.026 704.402 661.258 705.291 661.617C706.164 661.96 707.288 661.321 707.771 660.182Z" fill="#EBC0B3"/>
<path d="M740.921 508.797C738.363 474.602 740.983 439.705 750.874 406.726C758.986 379.691 787.487 372.937 811.09 386.992C833.819 400.517 846.611 427.069 853.865 451.202C860.854 474.446 865.393 501.184 858.685 525.021C851.385 550.901 826.565 560.324 802.089 562.789C769.843 566.033 736.569 564.926 705.041 557.016C695.229 554.552 684.745 546.221 696.383 537.532C706.008 530.341 721.359 527.642 733.199 527.454" fill="#5C87C7"/>
<path d="M994.468 501.844H621.035V667.687H994.468V501.844Z" fill="#EEF2FA"/>
<path d="M623.578 494.898H618.492V679.914H623.578V494.898Z" fill="#534E7A"/>
<path d="M1007.35 494.898H608.164V508.782H1007.35V494.898Z" fill="#F1C8B9"/>
<path d="M716.835 497.563H828.593L806.067 433.182C805.365 431.17 803.477 429.828 801.356 429.828H698.333C695.79 429.828 694.028 432.324 694.854 434.727L716.835 497.563Z" fill="white"/>
</g>
<mask id="mask7_620_5623" style="mask-type:luminance" maskUnits="userSpaceOnUse" x="9" y="0" width="780" height="780">
<path d="M9 780L789 780L789 0L9 -3.50162e-08L9 780Z" fill="white"/>
</mask>
<g mask="url(#mask7_620_5623)">
<path d="M262.08 325.773C260.536 326.522 256.464 325.008 254.717 324.759C252.408 324.431 250.021 324.385 247.681 324.463C242.892 324.603 238.118 325.414 233.548 326.834C224.468 329.657 215.966 334.946 210.179 342.574C202.909 352.137 202.457 362.012 202.332 373.431C202.301 376.317 202.457 379.203 202.894 382.058C203.034 382.931 203.954 389.468 204.797 389.593C205.202 389.655 205.577 389.358 205.873 389.062C210.241 384.819 211.817 378.704 214.906 373.618C216.684 370.67 219.118 368.096 221.099 365.241C225.841 358.424 230.63 351.653 235.435 344.883C237.682 341.716 239.928 338.534 242.19 335.367C242.159 335.398 262.08 325.773 262.08 325.773Z" fill="#4B742A"/>
<path d="M205.605 459.322V519.008H206.947V459.322C206.947 411.867 217.212 374.754 239.457 348.234L238.989 348.515C216.541 375.285 205.605 411.539 205.605 459.322Z" fill="#90CC6A"/>
<path d="M195.668 483.007C199.724 489.683 201.799 497.343 201.799 505.814V518.98H201.955C202.329 518.98 202.719 518.996 203.109 518.996H203.14V505.814C203.14 504.269 203.078 502.772 202.938 501.29C202.719 498.747 202.298 496.298 201.674 493.911C200.629 489.777 198.991 485.893 196.807 482.305L195.668 483.007Z" fill="#568336"/>
<path d="M210.582 414.303C210.628 411.48 212.188 408.079 212.937 405.302C213.795 402.104 214.638 398.891 215.449 395.677C216.9 389.983 218.912 385.256 221.439 379.968C223.358 375.959 225.838 372.371 227.757 368.377C228.646 366.521 229.536 364.68 230.596 362.917C232.484 359.766 234.715 357.129 236.322 353.838C237.975 350.468 240.222 347.395 242.936 344.821C245.9 341.997 248.88 339.221 251.454 336.069C254.574 332.232 258.193 328.847 262.077 325.805C260.533 327.021 255.65 327.021 253.653 327.489C250.72 328.191 247.803 329.003 244.933 329.939C242.92 330.594 240.939 330.843 239.052 331.904C237.148 332.981 235.526 334.463 233.732 335.711C230.362 338.066 226.478 339.564 222.812 341.436C218.241 343.776 212.5 348.128 210.847 353.027C209.022 358.487 205.122 362.589 203.92 368.361C202.672 374.383 202.875 380.576 203.718 386.629C204.139 389.609 204.544 392.588 204.966 395.568C205.434 398.891 206.011 402.089 207.134 405.271C207.992 407.658 210.628 411.823 210.582 414.303Z" fill="#699D46"/>
<path d="M109.043 478.579C109.667 475.802 112.865 472.573 114.659 470.389C116.905 467.659 119.433 465.131 122.412 463.213C124.815 461.668 127.482 460.529 129.994 459.157C135.391 456.208 140.352 452.027 146.421 451.013C149.993 450.405 153.643 450.967 157.231 451.528C163.315 452.48 169.462 453.431 175.203 455.662C180.943 457.893 186.341 461.512 189.57 466.754C194.391 474.569 198.509 482.962 201.021 491.823C195.093 482.962 168.541 472.167 168.541 472.167L149.026 471.449L133.145 474.164L123.769 476.161C121.585 476.629 119.355 476.925 117.171 477.315C114.721 477.752 111.461 478.891 109.043 478.579Z" fill="#568336"/>
<path d="M201.02 491.825C200.428 490.889 200.225 489.376 199.804 488.347C198.727 485.71 197.386 483.651 195.67 481.451C191.879 476.569 188.556 471.951 183.595 468.113C181.77 466.709 179.836 465.415 177.714 464.494C175.92 463.699 174.017 463.184 172.114 462.669C166.466 461.124 160.679 459.58 154.829 459.923C152.707 460.048 150.601 460.423 148.464 460.547C146.732 460.641 145.001 460.579 143.269 460.75C140.102 461.078 137.092 462.185 134.112 463.293C131.179 464.385 128.246 465.477 125.314 466.569C123.457 467.255 121.585 467.957 119.994 469.143C116.094 472.06 112.958 475.851 108.949 478.737C109.901 478.051 113.442 478.222 114.69 478.019C117.139 477.629 119.588 477.255 122.053 477.005C127.076 476.49 132.209 476.475 137.123 477.738C138.776 478.16 140.414 478.737 142.115 478.94C144.236 479.189 146.358 478.846 148.48 478.565C157.325 477.395 166.373 477.27 175.124 478.955C179.914 479.876 184.594 481.342 189.008 483.401C193.142 485.336 198.54 487.925 201.02 491.825Z" fill="#699D46"/>
<path d="M261.923 386.303C261.907 386.631 261.876 386.959 261.86 387.271L261.814 387.832C261.533 391.373 260.971 394.712 260.035 398.159C259.411 400.374 259.24 402.777 259.099 405.179C257.196 413.104 254.076 422.027 248.944 430.498C245.543 434.039 241.721 437.237 238.663 441.091C237.415 442.666 236.308 444.351 235.06 445.927C233.25 448.204 231.253 450.092 229.085 451.714C225.934 453.851 222.471 455.801 218.68 457.502C218.149 457.736 217.588 457.97 217.042 458.204C217.759 457.892 216.402 449.733 216.355 448.828C216.152 445.505 216.184 442.151 216.87 438.891C217.307 436.785 218.025 434.726 218.539 432.635C220.068 426.536 220.115 419.89 223.453 414.555C225.637 411.076 229.022 408.487 231.269 405.039C231.893 404.072 232.423 403.042 233.047 402.075C233.983 400.64 235.184 399.423 236.51 398.331C237.618 397.426 238.585 396.381 239.662 395.492C241.05 394.337 242.953 393.62 244.482 392.652C246.104 391.623 247.649 390.484 249.037 389.158C249.973 388.269 250.847 387.286 251.83 386.444C253.343 385.165 255.121 384.26 256.9 383.433C257.711 383.058 258.397 382.7 259.13 382.232C259.879 381.748 261.533 381.264 262.048 380.562C261.439 381.436 261.985 385.243 261.923 386.303Z" fill="#4B742A"/>
<path d="M210.645 518.98C211.097 518.98 211.549 518.964 211.986 518.964C212.049 515.844 212.111 512.771 212.173 509.791C212.47 496.765 212.907 485.409 213.515 478.997C216.448 448.515 236.509 418.407 256.805 390.202L255.713 389.422C235.293 417.783 215.122 448.062 212.158 478.888C211.534 485.315 211.113 496.719 210.816 509.776C210.769 512.74 210.707 515.829 210.645 518.98Z" fill="#90CC6A"/>
<path d="M261.924 386.288V386.303C261.909 386.631 261.877 386.959 261.862 387.271L261.815 387.832C261.534 391.373 260.973 394.712 260.037 398.159C259.413 400.375 259.241 402.777 259.101 405.179C258.991 407.457 258.882 409.735 258.477 411.903C257.634 416.365 256.215 420.764 253.75 424.601C252.377 426.754 250.723 428.673 248.945 430.498C245.544 434.039 241.722 437.237 238.665 441.091C237.417 442.666 236.309 444.351 235.061 445.927C233.251 448.204 231.255 450.092 229.102 451.699C229.102 451.714 229.086 451.714 229.086 451.714C225.935 454.085 222.441 455.879 218.681 457.502C218.151 457.736 217.589 457.97 217.043 458.204C225.202 430.67 262.065 380.594 262.065 380.594C261.441 381.436 261.987 385.243 261.924 386.288Z" fill="#699D46"/>
<path d="M196.684 437.565C141.444 414.602 143.816 346.445 143.816 346.445C147.669 348.598 150.96 351.578 154.954 353.59C159.01 355.634 163.44 357.256 166.56 360.548C168.011 362.077 169.103 363.886 170.429 365.509C174.922 371.015 181.926 374.213 185.826 380.173C189.056 385.102 189.711 391.264 192.129 396.631C193.252 399.111 194.734 401.435 195.561 404.025C196.403 406.677 196.497 409.501 196.606 412.277C196.887 420.748 196.59 429.094 196.684 437.565Z" fill="#4B742A"/>
<path d="M163.254 379.357C180.602 403.474 197.762 429.199 200.258 455.266C200.991 463.019 201.443 478.307 201.677 493.907C201.771 499.243 201.818 504.625 201.88 509.741C201.896 512.939 201.927 516.044 201.942 518.961C202.317 518.961 202.707 518.977 203.097 518.977C203.081 516.044 203.05 512.939 203.019 509.726C203.003 506.965 202.956 504.141 202.925 501.271C202.707 483.268 202.27 464.143 201.396 455.141C198.854 428.777 181.616 402.913 164.175 378.67C163.988 378.405 163.629 378.343 163.364 378.53C163.13 378.748 163.067 379.107 163.254 379.357Z" fill="#90CC6A"/>
<path d="M196.682 437.565C194.576 436.691 192.408 436.021 190.348 435.147C188.398 434.32 186.854 432.713 185.076 431.606C182.845 430.202 180.24 429.484 177.993 428.111C175.84 426.785 174.093 424.898 172.393 423.026C170.006 420.421 167.619 417.831 165.232 415.226C163.267 413.089 161.301 410.936 159.71 408.502C157.932 405.788 156.294 402.512 155.545 399.345C154.827 396.272 153.408 393.76 152.035 390.89C150.256 387.161 149.57 383.371 148.696 379.33C148.275 377.396 147.87 375.461 147.292 373.589C146.778 371.905 146.122 370.251 145.561 368.582C144.157 364.354 143.096 359.861 143.58 355.4C143.829 352.997 145.42 348.645 143.829 346.492C143.923 346.601 187.088 405.289 196.682 437.565Z" fill="#699D46"/>
<path d="M206.292 514.484H246.041L236.447 578.663H206.292H176.121L166.527 514.484H206.292Z" fill="white"/>
</g>
<mask id="mask8_620_5623" style="mask-type:luminance" maskUnits="userSpaceOnUse" x="9" y="0" width="780" height="780">
<path d="M9 780L789 780L789 0L9 -3.50162e-08L9 780Z" fill="white"/>
</mask>
<g mask="url(#mask8_620_5623)">
<path d="M266.039 1.89062H261.25V95.4906H266.039V1.89062Z" fill="#CFD5EE"/>
<path d="M247.148 116.453L281.125 116.718C278.629 123.754 271.906 128.762 264.028 128.699C256.165 128.637 249.52 123.52 247.148 116.453Z" fill="white"/>
<path d="M295.664 118.154L231.875 117.889C229.629 117.873 228.178 115.517 229.176 113.505C235.494 100.729 248.676 91.977 263.902 92.0394C279.096 92.1018 292.2 100.963 298.409 113.801C299.376 115.814 297.91 118.169 295.664 118.154Z" fill="#CFD5EE"/>
<path opacity="0.3" d="M231.237 118.65L13.4766 497.715L512.677 498.76L294.916 114.844L231.237 118.65Z" fill="url(#paint0_linear_620_5623)"/>
</g>
<path d="M167.234 575.727L541.895 575.727L541.895 536.869L167.234 536.869L167.234 575.727Z" fill="#ABB6D8"/>
<path d="M539.331 715.523L544.445 715.523L544.445 529.907L539.331 529.907L539.331 715.523Z" fill="#534E7A"/>
<path d="M164.674 715.523L169.789 715.523L169.789 529.907L164.674 529.907L164.674 715.523Z" fill="#534E7A"/>
<path d="M155.709 542.236C160.968 546.716 175.794 543.835 182.551 543.835C203.212 543.835 223.873 543.835 244.534 543.835C292.785 543.835 341.037 543.835 389.289 543.835C431.691 543.835 474.093 543.835 516.496 543.835C527.691 543.835 556.621 548.402 561.174 535.363C563.163 529.672 558.797 523.361 553.264 520.984C547.732 518.607 541.45 519.082 535.442 519.514C481.024 523.419 426.389 519.241 371.87 516.95C324.583 514.962 277.239 514.4 229.91 513.838C211.266 513.622 192.464 513.406 174.166 516.964C167.336 518.29 160.133 520.437 155.767 525.854C152.468 529.975 151.171 538.374 155.709 542.236Z" fill="#F1C8B9"/>
<path d="M261.071 473.849C251.605 484.266 244.415 496.757 240.194 510.186C238.955 514.119 240.006 520.213 241.174 524.118C243.81 532.907 248.089 539.088 256.316 540.989C260.077 541.854 263.952 541.724 267.799 541.595C277.092 541.278 291.428 530.443 301.6 530.486C316.555 530.529 327.505 541.335 341.034 539.376C346.437 538.583 347.763 534.693 351.321 530.155C355.586 524.709 358.713 514.666 357.027 507.722C353.05 491.354 331.006 480.765 328.787 467.438" fill="#191C26"/>
<path d="M315.349 304.18C315.349 304.18 317.755 321.628 310.868 325.215C305.393 328.068 308.16 307.292 308.16 307.292" fill="#191C26"/>
<path d="M273.809 360.978C273.809 360.978 278.434 365.416 280.278 369.695C288.865 371.611 293.72 371.798 299.786 369.954C303.301 368.873 309.929 364.566 310.39 361.914C309.065 359.422 304.656 358.903 302.797 358.226C302.149 358.111 301.371 358.024 301.126 357.837L301.068 357.779C300.78 357.578 300.578 357.405 300.521 357.189C300.146 355.95 300.002 355.388 299.988 354.725C299.944 354.206 299.973 353.63 299.973 352.593C299.901 350.028 299.872 347.204 299.872 347.204L294.988 344.784L275.321 329.367L275.696 335.202C275.696 335.202 277.929 352.031 276.676 359.552C276.56 360.186 274.327 360.546 273.809 360.978Z" fill="#FE9C70"/>
<path d="M285.855 342.695C285.855 342.695 288.103 350.793 299.975 354.711C299.932 354.193 299.961 353.616 299.961 352.579C299.889 350.014 299.86 347.191 299.86 347.191L294.976 344.77L285.855 342.695Z" fill="#D79580"/>
<path d="M313.287 330.195C313.273 330.455 313.273 330.714 313.258 330.973C313.028 335.771 312.567 342.788 309.556 346.202C306.199 350.02 302.957 349.617 297.929 348.868C293.952 348.277 289.471 346.692 285.624 344.459C282.757 342.788 280.236 340.742 278.564 338.465C276.749 336.002 273.623 335.469 272.398 332.702C268.767 324.533 271.764 317.243 277.858 310.702C283.492 304.65 300.508 296.611 308.706 299.622C313.864 301.524 313.662 322.458 313.287 330.195Z" fill="#FE9C70"/>
<path d="M308.95 309.63C308.921 309.645 308.892 309.659 308.849 309.674C304.383 311.489 299.599 312.411 294.773 312.44C292.986 312.454 291.185 312.8 289.413 312.67C288.361 312.584 286.474 311.647 285.494 312.353C284.269 313.247 285.191 318.678 285.119 320.09C284.932 323.361 284.413 326.79 283.246 328.822C282.18 330.695 282.396 322.035 277.699 321.142C274.803 320.595 277.008 333.302 275.452 334.152C276.143 337.812 277.065 346.298 277.008 350.837C274.616 352.652 274.386 340.319 272.368 338.071C270.351 335.838 259.473 322.958 258.292 315.739C257.01 307.801 260.28 301.879 267.527 300.856C265.496 295.9 269.472 290.958 273.939 288.97C278.304 287.024 284.817 285.382 292.05 288.984C292.539 289.229 296.041 287.586 296.747 287.413C298.447 286.996 300.19 286.708 301.948 286.578C305.29 286.333 308.849 286.621 311.904 288.091C318.891 291.448 319.151 301.72 313.661 306.821C312.336 308.089 310.65 308.939 308.95 309.63Z" fill="#191C26"/>
<path d="M303.648 322.352C304.555 324.498 305.189 326.616 305.881 328.734C305.967 328.994 306.039 329.296 306.111 329.469C306.212 329.714 306.342 329.988 306.443 330.319C306.486 330.492 306.529 330.665 306.544 330.924C306.558 331.198 306.457 331.486 306.299 331.702C305.967 332.134 305.622 332.235 305.405 332.351C304.498 332.84 303.576 333.503 302.668 334.224C303.115 333.129 303.835 332.192 304.8 331.4C305.06 331.212 305.247 331.054 305.247 331.011C305.247 330.996 305.233 330.996 305.233 330.982C305.218 330.953 305.189 330.852 305.146 330.751L304.815 330.031C304.671 329.7 304.599 329.44 304.498 329.166C303.849 326.976 303.446 324.671 303.648 322.352Z" fill="#EF8359"/>
<path d="M294.052 320.732C293.691 321.25 293.864 321.74 293.922 322.331C293.951 322.605 293.965 322.864 293.936 323.138C293.936 323.239 293.922 323.339 293.893 323.44C294.225 323.224 294.282 323.166 294.08 323.267C294.354 323.339 294.614 323.411 294.887 323.483C294.758 323.339 294.786 322.806 294.786 322.648C294.815 322.288 294.959 321.999 295.147 321.697C294.758 321.798 294.383 321.899 293.994 321.999C294.037 322.043 294.08 322.071 294.124 322.115C294.657 322.705 295.737 322.086 295.478 321.322C295.348 320.933 295.219 320.717 294.844 320.544C294.441 320.357 293.922 320.415 293.691 320.847C293.014 322.086 293.029 323.354 293.619 324.593C293.749 324.852 294.124 325.083 294.426 325.054C295.42 324.953 295.838 324.204 295.953 323.282C296.069 322.374 296.141 320.904 295.161 320.443C294.743 320.256 294.325 320.357 294.052 320.732Z" fill="#191C26"/>
<path d="M307.756 321.679C307.655 322.068 307.799 322.385 307.871 322.76C307.914 322.976 307.929 323.221 307.914 323.451C307.9 323.595 307.727 323.955 307.957 323.883C308.145 323.912 308.332 323.927 308.519 323.955C308.274 323.84 308.375 323.394 308.433 323.221C308.462 323.091 308.505 322.976 308.577 322.86C308.721 322.688 308.721 322.673 308.562 322.803C308.318 322.774 308.087 322.745 307.842 322.702C307.698 322.428 307.669 322.443 307.784 322.731C307.828 322.875 307.842 323.033 307.842 323.177C307.842 323.249 307.842 323.336 307.842 323.408C307.698 323.883 308.001 323.912 308.764 323.509C308.793 323.307 308.678 323.163 308.735 322.932C308.807 322.659 308.98 322.428 309.052 322.154C309.24 321.477 308.418 320.728 307.784 321.175C306.963 321.751 306.761 322.846 306.949 323.797C307.122 324.719 307.986 325.656 308.966 325.079C310.493 324.172 309.657 319.921 307.698 321.175C306.92 321.665 306.689 322.788 306.848 323.624C306.992 324.359 307.41 325.454 308.346 325.281C309.931 324.993 309.802 321.52 308.173 321.376C307.972 321.348 307.799 321.506 307.756 321.679Z" fill="#191C26"/>
<path d="M296.529 315.971C295.276 314.473 293.633 314.358 291.76 314.386C289.859 314.415 287.683 314.545 286.199 315.856C285.839 316.173 286.213 316.778 286.66 316.648C289.196 315.914 293.677 314.516 296.025 316.475C296.385 316.778 296.832 316.331 296.529 315.971Z" fill="#191C26"/>
<path d="M306.66 316.381C307.884 315.978 308.994 315.473 310.319 315.545C311.515 315.603 312.466 316.28 313.619 316.381C313.82 316.396 313.907 316.165 313.835 316.006C312.696 313.572 307.841 314.076 306.328 315.819C306.141 316.05 306.328 316.482 306.66 316.381Z" fill="#191C26"/>
<path d="M279.875 323.25C279.875 323.25 283.852 333.047 289.917 333.494" stroke="white" stroke-width="0.5613" stroke-miterlimit="10"/>
<path d="M275.652 334.148C275.652 334.148 279.874 342.001 287.251 344.767" stroke="white" stroke-width="0.5613" stroke-miterlimit="10"/>
<path d="M313.385 328.467C313.385 332.487 313.284 341.953 309.552 346.203C306.195 350.022 302.954 349.618 297.925 348.869C293.949 348.278 289.468 346.693 285.621 344.46C286.716 342.083 288.142 337.76 287.292 332.732C287.292 332.732 294.54 331.306 299.208 330.038C303.876 328.77 305.749 328.309 307.636 328.064C309.524 327.819 312.016 328.453 313.385 328.467Z" fill="white"/>
<path d="M281.404 324.833C281.13 324.185 280.51 322.816 279.286 321.865C277.989 320.856 274.229 320.136 272.413 323.968C270.41 328.176 275.324 340.148 279.876 335.279C283.435 331.446 282.47 327.325 281.404 324.833Z" fill="#FE9C70"/>
<path d="M274.688 324.92C274.688 324.92 276.114 322.658 278.376 324.445C280.22 325.9 280.609 331.649 278.39 332.715C276.114 333.796 274.284 331.015 275.581 328.71C275.84 328.263 276.2 327.975 276.575 327.874C278.491 327.341 278.232 325.353 277.353 324.704C276.805 324.315 275.653 324.243 274.688 324.92Z" fill="#FE9C70"/>
<path d="M334.575 656.719C333.797 660.998 330.426 666.963 330.426 666.963L330.685 676.011L335.512 678.172L349.185 666.286C349.185 666.286 350.006 659.413 349.761 659.557L334.575 656.719Z" fill="#FE9C70"/>
<path d="M373.375 692.784C371.243 694.57 361.475 694.988 355.164 693.922C348.853 692.87 342.888 688.648 340.324 687.164C337.745 685.666 327.169 684.744 326.204 683.202C325.57 682.165 325.887 681.228 326.175 680.71C326.334 680.45 326.478 680.292 326.478 680.292C326.262 674.788 328.74 666.633 329.748 666.36C330.757 666.1 330.771 669.645 331.405 670.898C332.011 672.166 334.229 673.866 337.226 672.598C340.252 671.316 341.419 667.224 344.862 666.504C348.32 665.783 349.732 666.46 349.732 666.46C353.334 668.766 358.766 676.834 362.642 680.105C366.517 683.361 372.352 685.839 373.404 686.862C374.47 687.885 373.923 690.176 373.923 690.176C373.923 690.176 373.952 690.19 373.995 690.219C374.269 690.406 375.22 691.227 373.375 692.784Z" fill="#191C26"/>
<path d="M379.084 522.541C379.012 502.615 345.831 489.922 345.831 489.922L315.747 507.744C315.747 507.744 314.378 532.886 325.732 537.151C329.895 538.721 333.267 540.508 335.875 542.165C335.515 544.715 335.241 547.265 334.996 549.815C332.619 575.591 333.209 601.583 335.659 627.373C335.572 632.761 335.486 637.962 335.342 642.602C335.082 650.8 333.339 660.77 333.339 660.77C342.113 665.697 349.533 663.104 349.533 663.104C349.533 663.104 374.589 579.005 374.589 554.93C374.589 554.916 374.589 554.872 374.589 554.844C377.124 542.799 379.113 530.826 379.084 522.541Z" fill="#191C26"/>
<path d="M373.375 692.785C371.243 694.571 361.475 694.989 355.164 693.923C348.853 692.871 342.888 688.65 340.324 687.166C337.745 685.667 327.169 684.745 326.204 683.204C325.57 682.166 325.887 681.23 326.175 680.711C329.043 680.956 332.083 681.763 333.293 681.878C334.979 682.022 336.722 681.95 338.292 682.584C339.517 683.088 340.54 683.982 341.563 684.817C349.905 691.387 361.446 693.664 371.646 690.753C372.41 690.537 373.202 690.263 373.98 690.22C374.269 690.407 375.22 691.229 373.375 692.785Z" fill="white"/>
<path d="M329.158 480.596C340.382 488.016 351.822 494.413 361.878 503.519C366.705 507.885 371.099 512.913 373.16 519.195C374.745 524.05 373.578 529.237 372.699 534.121C370.523 546.253 369.054 558.485 366.979 570.631C364.602 584.477 361.878 598.265 358.997 612.025C355.712 627.657 352.24 643.246 348.839 658.864C348.739 659.34 349.459 659.542 349.574 659.066C356.187 629.789 362.786 600.484 367.915 570.905C370.134 558.11 371.863 545.259 374.024 532.465C374.716 528.416 375.566 524.065 374.471 520.016C373.059 514.757 369.846 510.046 366.114 506.156C361.259 501.084 355.568 496.704 349.862 492.641C343.422 488.06 336.607 483.464 329.418 480.164C329.129 480.02 328.885 480.409 329.158 480.596Z" fill="#EEF2FA"/>
<path d="M339.016 474.964C339.246 475.93 339.347 476.938 339.419 478.076C339.448 478.653 339.203 484.69 339.203 484.69C327.173 480.497 313.802 480.223 301.613 483.94C294.208 486.203 286.067 486.375 278.489 484.776C274.627 483.955 270.867 482.673 267.323 480.958C266.141 480.382 257.612 476.203 257.857 474.835C258.808 469.259 260.508 463.813 262.049 458.381C263.202 454.304 264.139 450.212 264.888 446.149C269.224 422.808 267.568 400.649 268.115 390.448C269.397 367.136 274.267 360.682 274.44 360.48L276.846 361.517C286.327 365.595 297.204 364.673 305.849 359.039C305.849 359.039 307.016 360.379 308.817 364.73C309.394 366.113 310.027 367.799 310.719 369.845C312.189 374.254 313.903 380.305 315.675 388.561C319.825 407.939 322.793 439.435 326.107 448.728C328.383 455.11 331.668 461.176 334.939 467.083C335.99 468.985 337.186 470.815 338.18 472.746C338.569 473.495 338.829 474.23 339.016 474.964Z" fill="white"/>
<path d="M268.117 390.446C267.454 402.433 269.86 430.86 262.051 458.365C261.085 461.779 260.25 464.545 259.529 466.822C257.916 471.893 256.893 474.4 256.288 475.611C255.193 476.129 254.155 476.662 253.19 477.181C251.663 477.988 247.888 481.316 246.058 480.495C245.511 480.25 245.122 479.76 244.79 479.256C242.96 476.49 244.012 473.565 244.502 470.525C244.646 469.603 244.79 468.666 244.949 467.686C245.395 464.79 245.842 461.635 246.274 458.321C247.773 446.651 248.983 432.949 248.536 421.351C247.96 406.813 244.733 396.771 242.269 389.798C240.281 384.135 238.797 380.476 239.632 377.983C239.747 377.637 240.007 377.263 240.425 376.845C242.759 374.381 249.574 370.938 256.85 367.71C263.275 364.858 270.062 362.163 274.427 360.492C274.283 360.679 269.413 367.12 268.117 390.446Z" fill="#7A86DE"/>
<path d="M342.083 476.274C342.415 480.424 341.838 484.444 338.107 487.051C336.075 486.173 334.505 484.444 333.424 482.513C332.344 480.582 331.695 478.45 331.076 476.318C329.491 470.929 329.102 465.382 328.036 459.849C325.86 448.51 323.411 437.287 321.711 425.861C319.852 413.399 318.31 400.849 315.674 388.531C313.08 376.442 310.631 369.066 308.816 364.7C307.058 360.479 305.905 359.095 305.848 359.023C309.061 360.219 314.68 362.366 320.457 364.887C328.05 368.187 335.96 372.12 339.216 375.376C339.706 375.866 340.109 376.342 340.441 376.832C342.616 379.929 341.91 382.998 340.455 386.96C338.842 391.383 336.306 396.887 335.802 404.739C335.629 407.419 335.672 411.194 335.888 415.632C336.133 420.718 336.565 426.683 337.113 432.835C337.646 438.872 338.265 445.11 338.885 450.888C339.159 453.611 339.461 456.247 339.735 458.711C339.792 459.23 339.85 459.749 339.908 460.253C340.181 462.717 340.455 464.993 340.686 467.01C341.032 469.791 341.838 473.076 342.083 476.274Z" fill="#7A86DE"/>
<path d="M353.639 482.928C353.639 482.928 355.166 493.071 347.473 503.546C345.542 509.266 346.968 513.285 341.594 516.513C340.139 519.51 339.462 522.189 337.387 521.152C335.543 523.227 333.656 524.696 332.503 520.345C330.471 522.377 327.475 519.294 328.267 504.338C328.339 497.956 331.653 491.818 342.502 480.421C349.36 478.015 353.639 482.928 353.639 482.928Z" fill="#FE9C70"/>
<path d="M328.902 499.833C328.902 499.833 323.096 505.496 324.94 507.484C326.438 508.248 328.182 506.475 328.182 506.475C328.182 506.475 341.639 493.941 328.902 499.833Z" fill="#FE9C70"/>
<path d="M332.507 520.349C331.642 517.914 331.268 515.421 331.051 512.9C330.965 511.647 330.922 510.379 330.979 509.111C331.066 507.857 331.109 506.517 331.7 505.336C331.729 506.604 332.031 507.814 332.161 509.068C332.334 510.307 332.449 511.546 332.564 512.799C332.737 515.292 332.838 517.799 332.507 520.349Z" fill="#EF8054"/>
<path d="M337.387 521.165C336.552 518.601 336.206 515.993 336.033 513.356C335.975 512.045 335.946 510.72 336.047 509.394C336.148 508.083 336.292 506.714 336.796 505.461L337.243 509.38C337.387 510.677 337.488 511.973 337.574 513.284C337.675 515.878 337.733 518.5 337.387 521.165Z" fill="#EF8054"/>
<path d="M341.597 516.52C341.208 515.411 341.006 514.287 340.876 513.149C340.747 512.01 340.732 510.872 340.79 509.72C340.862 508.581 341.006 507.429 341.323 506.305C341.626 505.196 342.058 504.057 342.836 503.164C342.649 504.317 342.577 505.412 342.505 506.507L342.317 509.806C342.144 512.01 342.044 514.229 341.597 516.52Z" fill="#EF8054"/>
<path d="M358.411 472.369C358.339 472.643 358.281 472.916 358.209 473.19C354.665 487.641 352.864 492.237 352.864 492.237C350.357 492.237 337.001 486.517 337.001 486.517L338.341 473.003L338.658 469.847L339.753 458.725L341.366 442.444C341.366 442.444 339.666 438.467 337.13 432.848C332.001 421.423 323.443 403.226 318.746 397.823L336.136 381.023L340.444 376.859C350.559 389.711 360.687 413.34 362.848 437.732C363.713 447.414 361.091 461.304 358.411 472.369Z" fill="#7A86DE"/>
<path d="M246.895 481.612C246.895 481.612 250.655 490.444 261.936 494.997C266.287 498.599 267.123 502.503 272.987 502.431C275.624 504.088 277.468 505.903 278.621 504.059C281.113 504.808 283.332 505.039 282.107 501.019C284.729 501.639 285.594 497.72 277.626 486.193C274.428 481.151 268.78 477.88 254.545 474.148C247.903 475.589 246.895 481.612 246.895 481.612Z" fill="#FE9C70"/>
<path d="M274.891 482.906C274.891 482.906 282.297 484.563 281.807 487.041C280.986 488.396 278.738 487.834 278.738 487.834C278.738 487.834 261.852 484.477 274.891 482.906Z" fill="#FE9C70"/>
<path d="M282.103 501.019C280.547 499.161 279.395 497.115 278.3 495.055C277.781 494.003 277.262 492.965 276.801 491.885C276.297 490.819 275.951 489.709 275.375 488.672C276.456 489.306 277.147 490.358 277.839 491.308C278.53 492.288 279.107 493.311 279.654 494.363C280.706 496.452 281.628 498.628 282.103 501.019Z" fill="#EF8054"/>
<path d="M278.619 504.059C276.991 502.128 275.752 500.024 274.571 497.878C273.995 496.797 273.433 495.716 272.928 494.607L271.387 491.25C272.424 491.999 273.217 493.008 273.951 494.002C274.686 495.01 275.306 496.077 275.911 497.143C277.049 499.333 278.058 501.595 278.619 504.059Z" fill="#EF8054"/>
<path d="M272.988 502.434C271.476 500.864 270.294 499.149 269.084 497.463L267.326 494.928C266.721 494.092 266.145 493.256 265.453 492.406C266.519 492.723 267.427 493.415 268.234 494.135C269.041 494.87 269.718 495.72 270.352 496.585C270.957 497.478 271.504 498.385 271.951 499.365C272.383 500.345 272.772 501.353 272.988 502.434Z" fill="#EF8054"/>
<path d="M261.934 476.294C261.934 476.294 258.606 477.087 255.321 478.917C252.67 480.386 250.077 482.519 249.255 485.429C249.255 485.429 247.973 483.916 246.129 481.481C245.293 480.357 244.328 479.032 243.319 477.577C240.913 474.09 238.248 469.782 236.332 465.474C230.525 452.449 228.508 449.798 228.278 439.828C228.018 428.475 228.839 417.179 230.511 405.941C231.966 396.259 234.17 386.26 239.631 377.99C239.876 377.615 240.121 377.241 240.395 376.88C240.395 376.866 240.409 376.866 240.409 376.852L245.336 383.407L258.361 400.697C260.81 408.909 253.419 442.811 253.419 442.811L258.548 462.996L259.168 465.46L259.514 466.814L261.934 476.294Z" fill="#7A86DE"/>
<path d="M275.394 363.708C283.506 370.005 295.191 368.593 303.533 363.766C303.648 363.708 303.389 363.478 303.288 363.521C295.075 368.276 283.492 369.788 275.495 363.579C275.322 363.449 275.222 363.579 275.394 363.708Z" fill="#DBE3DF"/>
<path d="M323.785 446.561C323.785 446.561 317.936 442.008 308.715 443.708" stroke="#DBE3DF" stroke-width="0.4858" stroke-miterlimit="10"/>
<path d="M308.235 664.47L307.615 658.562L294.504 658.851L294.518 667.683L296.91 676.976C296.91 676.976 307.356 677.077 307.442 676.875C307.529 676.659 309.949 666.501 309.949 666.501L308.235 664.47Z" fill="#FE9C70"/>
<path d="M312.181 679.596C310.51 686.468 304.214 685.589 305.295 692.044C305.626 693.989 305.467 695.372 305.021 696.424C305.237 698.657 303.897 699.176 303.897 699.176C292.99 703.34 282.847 698.297 282.588 696.799C282.415 695.805 282.631 695.588 282.761 694.479C282.746 694.421 282.746 694.364 282.746 694.306C282.631 693.586 282.674 692.692 282.876 691.742C283.495 688.773 288.697 683.097 289.849 678.731C290.988 674.366 291.967 670.346 293.293 668.631C294.618 666.917 299.114 666.096 302.845 667.205C306.562 668.314 307.268 670.706 308.45 668.934C309.631 667.147 308.248 664.482 308.248 664.482C310.164 663.992 312.138 669.827 311.792 676.109C311.792 676.196 311.778 676.311 311.778 676.412C312.167 677.262 312.498 678.299 312.181 679.596Z" fill="#191C26"/>
<path d="M307.667 635.494C307.12 624.602 306.183 612.802 304.901 601.924C303.561 590.527 301.933 579.16 300.002 567.85C298.735 560.401 297.308 552.909 294.686 545.791C294.571 545.489 294.441 545.186 294.326 544.883C292.842 537.622 290.897 530.389 287.151 524.237C282.886 517.235 275.869 511.76 268.219 511.861C265.654 511.89 263.003 512.61 261.087 514.483C259.315 516.226 239.749 517.35 240.296 519.9C244.691 540.158 253.696 557.678 261.058 574.736C266.864 590.787 272.714 606.837 278.65 622.844C283.635 636.301 287.741 650.205 293.663 663.244C296.53 663.143 299.34 663.258 302.12 662.811C302.538 662.739 309.742 662.105 309.713 661.313C309.728 661.227 308.431 650.709 307.667 635.494Z" fill="#191C26"/>
<path d="M312.178 679.603C310.506 686.475 304.21 685.596 305.291 692.051C305.622 693.996 305.464 695.379 305.017 696.431C305.233 698.664 303.893 699.183 303.893 699.183C292.986 703.347 282.843 698.304 282.584 696.806C282.411 695.811 282.627 695.595 282.757 694.486C282.742 694.428 282.742 694.371 282.742 694.313C284.068 695.091 285.61 695.422 287.122 695.696C291.286 696.46 295.565 696.906 299.801 696.489C302.539 696.229 302.827 696.359 302.769 693.679C302.712 690.279 303.043 685.856 306.198 683.824C306.717 683.478 307.279 683.233 307.783 682.888C309.988 681.418 310.938 678.695 311.76 676.159C311.76 676.145 311.774 676.116 311.789 676.102C311.789 676.188 311.774 676.303 311.774 676.404C312.163 677.269 312.495 678.306 312.178 679.603Z" fill="white"/>
<path opacity="0.5" d="M273.114 714.835C273.244 719.186 308.644 721.361 335.226 720.598C361.808 719.834 372.499 715.959 369.373 712.068C364.632 706.176 347.674 707.299 321.092 708.049C294.509 708.812 272.984 710.469 273.114 714.835Z" fill="#BED3E3"/>
<path d="M263.695 409.941C266.231 409.941 266.231 406.008 263.695 406.008C261.159 405.993 261.159 409.941 263.695 409.941Z" fill="#596BC1"/>
<path d="M263.298 424.805C265.444 424.805 265.444 421.477 263.298 421.477C261.151 421.477 261.151 424.805 263.298 424.805Z" fill="#596BC1"/>
<path d="M241.878 376.852C245.278 379.23 247.742 382.673 249.01 386.621C249.082 386.837 249.413 386.751 249.356 386.52C248.304 382.27 245.782 378.812 242.108 376.435C241.864 376.276 241.633 376.68 241.878 376.852Z" fill="#596BC1"/>
<path d="M337.214 433.517C337.214 428.906 336.868 424.325 336.969 419.7C337.07 415.176 337.3 410.652 337.228 406.113C337.113 398.765 336.493 390.639 332.949 384.04C332.747 383.666 332.085 383.925 332.243 384.343C335.096 392.354 336.277 400.091 336.263 408.606C336.248 416.76 335.053 425.535 336.81 433.56C336.868 433.805 337.214 433.747 337.214 433.517Z" fill="#596BC1"/>
<path d="M252.269 441.789C248.912 439.801 245.05 438.562 241.117 438.735C240.728 438.749 240.598 439.369 241.016 439.441C244.834 440.089 248.436 440.867 252.024 442.366C252.355 442.495 252.571 441.962 252.269 441.789Z" fill="#596BC1"/>
<path d="M251.965 439.703C250.682 436.202 248.723 432.283 244.545 431.923C244.357 431.908 244.17 432.11 244.184 432.283C244.271 434.358 245.812 436.937 248.132 436.922C248.334 436.922 248.435 436.634 248.233 436.533C246.418 435.568 244.977 434.574 244.905 432.283C244.79 432.398 244.66 432.528 244.545 432.643C248.42 432.989 250.077 436.778 251.489 439.89C251.604 440.178 252.065 439.977 251.965 439.703Z" fill="#596BC1"/>
<path d="M324.982 433.801C326.293 433.412 327.921 432.908 328.887 431.914C329.016 431.77 328.93 431.539 328.728 431.539C327.331 431.539 325.847 432.36 324.651 433.023C324.233 433.254 324.507 433.945 324.982 433.801Z" fill="#596BC1"/>
<path d="M321.311 412.65C321.772 412.708 322.118 412.636 322.564 412.564C322.867 412.506 322.867 412.002 322.564 411.944C322.118 411.858 321.772 411.786 321.311 411.858C320.792 411.915 320.792 412.592 321.311 412.65Z" fill="#596BC1"/>
<path d="M337.203 486.518C337.722 481.489 338.154 476.447 338.673 471.418C339.191 466.404 340.185 461.434 340.589 456.42C340.618 456.074 340.085 456.016 339.998 456.333C338.673 460.958 338.37 466.059 337.866 470.828C337.318 476.058 336.929 481.273 336.785 486.518C336.785 486.791 337.174 486.777 337.203 486.518Z" fill="#596BC1"/>
<path d="M341.771 443.184C343.716 441.283 345.805 436.254 349.104 436.831C349.004 436.701 348.903 436.557 348.802 436.427C348.73 436.903 348.499 437.205 348.096 437.335C347.923 437.421 347.981 437.681 348.154 437.738C349.061 438.012 349.623 437.292 349.638 436.427C349.638 436.254 349.508 436.067 349.335 436.024C347.793 435.707 346.511 436.384 345.416 437.45C343.874 438.934 342.347 440.951 341.295 442.795C341.094 443.127 341.512 443.444 341.771 443.184Z" fill="#596BC1"/>
<path d="M341.713 444.039C343.989 442.454 346.28 442.396 348.917 442.785C349.22 442.828 349.436 442.439 349.133 442.252C346.655 440.696 343.327 441.633 341.31 443.534C341.065 443.765 341.41 444.24 341.713 444.039Z" fill="#596BC1"/>
<path d="M338.964 375.7C338.489 375.469 337.883 375.455 337.408 375.714C337.249 375.801 337.249 376.046 337.408 376.147C337.883 376.406 338.489 376.377 338.964 376.161C339.137 376.06 339.137 375.772 338.964 375.7Z" fill="#596BC1"/>
<path d="M242.802 376.231C243.551 376.274 244.257 376.476 244.906 376.85C245.54 377.211 245.914 377.744 246.447 378.219C246.664 378.406 247.081 378.234 246.966 377.917C246.39 376.332 244.358 375.525 242.802 375.539C242.356 375.554 242.37 376.216 242.802 376.231Z" fill="#596BC1"/>
<path d="M262.197 476.215C260.612 470.178 259.33 464.04 257.572 458.047C255.555 451.203 253.797 444.748 254.345 437.53C255.281 424.88 261.001 412.547 259.488 399.724C259.431 399.263 258.739 399.234 258.754 399.724C259.243 413.123 254.071 425.528 253.293 438.769C252.918 445.224 254.388 451.045 256.29 457.168C258.264 463.507 259.474 470.092 261.693 476.359C261.794 476.676 262.284 476.561 262.197 476.215Z" fill="#596BC1"/>
<path d="M287.54 525.607C288.578 528.229 289.615 531.053 291.171 533.416C291.286 533.603 291.589 533.488 291.531 533.257C290.84 530.52 289.442 527.84 288.203 525.318C288.03 524.973 287.382 525.232 287.54 525.607Z" fill="#3F3F3F"/>
<path d="M336.377 543.148C336.694 541.721 336.882 540.266 337.213 538.825C337.544 537.399 338.02 535.987 338.279 534.546C338.337 534.2 337.861 533.927 337.674 534.287C336.334 536.823 335.671 540.194 335.7 543.047C335.7 543.436 336.291 543.537 336.377 543.148Z" fill="#3F3F3F"/>
<path d="M255.395 493.559C250.366 502.708 246.26 511.915 248.608 522.548C249.876 528.326 252.239 533.844 254.285 539.376C256.288 544.794 258.305 550.211 260.322 555.628C268.679 578.032 276.949 600.465 284.729 623.071C289.066 635.678 293.186 648.357 297.062 661.122C297.206 661.612 297.984 661.411 297.84 660.906C285.204 617.596 268.808 575.453 253.032 533.21C250.64 526.813 248.119 520.156 248.58 513.197C249.041 506.238 252.599 499.827 255.784 493.776C255.913 493.531 255.524 493.3 255.395 493.559Z" fill="#EEF2FA"/>
<path opacity="0.5" d="M386.955 708.575C387.243 718.588 437.555 724.481 475.261 723.4C512.966 722.32 528.037 713.69 523.498 704.656C516.626 690.983 492.579 693.13 454.874 694.21C417.168 695.291 386.667 698.561 386.955 708.575Z" fill="#BED3E3"/>
<path d="M331.559 405.126C331.876 406.754 331.602 411.567 328.792 410.414C326.732 409.564 326.3 406.437 326.948 404.593C328.072 401.366 330.68 405.083 330.507 407.057C330.464 407.561 330.147 408.757 329.628 409.045C328.591 409.607 327.928 408.368 327.842 407.561C327.784 406.999 327.784 406.61 328.317 406.394C328.893 406.092 329.066 406.423 328.836 407.359C327.971 407.475 328.288 407.403 329.815 407.143C330.305 406.279 329.498 405.314 328.576 405.53C328.202 405.616 327.813 405.703 327.438 405.789C326.084 406.092 326.674 408.08 328 407.849C328.389 407.792 328.778 407.72 329.167 407.662C328.749 407.129 328.331 406.581 327.928 406.048C327.352 406.927 327.049 408.44 328.173 409.045C329.326 409.665 330.507 408.57 330.622 407.446C330.91 404.507 326.66 404.247 326.041 406.97C325.363 409.895 329.326 410.745 330.954 408.829C332.855 406.581 330.118 402.735 327.366 403.671C324.499 404.636 324.816 409.016 326.674 410.76C329.196 413.123 332.222 410.789 332.827 407.979C333.446 405.112 331.703 401.006 328.432 400.689C325.335 400.4 323.894 403.887 323.98 406.481C324.081 409.564 326.516 413.54 330.104 412.82C333.576 412.114 334.181 407.475 333.244 404.694C332.87 403.613 331.343 404.046 331.559 405.126Z" fill="#2E2F44"/>
<path d="M357.071 407.133C353.369 404.107 344.277 398.387 341.208 398.257C338.802 398.157 336.468 399.093 334.408 400.275C332.506 401.37 330.302 402.695 329.207 404.669C329.063 404.943 328.962 405.303 329.149 405.533C329.308 405.735 329.61 405.75 329.869 405.721C331.555 405.591 333.169 405.072 334.811 404.669C338.284 403.819 341.871 403.516 345.43 403.79" fill="#FE9C70"/>
<path d="M344.224 405.004C335.046 403.564 335.248 406.503 334.989 407.944C334.729 409.399 335.925 410.926 337.222 411.589C336.819 414.053 337.222 414.614 339.181 416.113C338.187 418.922 342.524 419.859 344.945 420.089C345.939 420.19 347.985 419.917 348.878 419.455C349.757 418.994 349.915 418.346 349.555 417.395C351.457 419.556 356.269 419.816 358.229 417.712C358.589 417.338 358.906 416.876 359.396 416.718C359.77 416.588 360.447 415.493 360.836 415.551C363.055 415.911 362.911 414.845 365.144 415.205" fill="#FE9C70"/>
<g opacity="0.2">
<path d="M338.492 411.81C340.034 412.112 346.69 413.135 345.926 409.894C345.898 409.778 345.725 409.807 345.725 409.923C345.682 412.502 340.163 411.839 338.55 411.579C338.406 411.551 338.334 411.781 338.492 411.81Z" fill="#49161A"/>
</g>
<g opacity="0.2">
<path d="M339.969 416.392C341.986 416.911 344.623 416.94 346.338 415.557C347.404 414.692 347.822 412.992 346.554 412.142C346.438 412.07 346.309 412.243 346.41 412.329C348.052 413.9 346.021 415.485 344.58 415.96C343.096 416.45 341.569 416.465 340.056 416.119C339.868 416.09 339.796 416.349 339.969 416.392Z" fill="#49161A"/>
</g>
<g opacity="0.2">
<path d="M347.319 415.475C347.838 415.619 348.255 415.893 348.616 416.297C348.947 416.671 349.048 417.132 349.322 417.521C349.437 417.68 349.739 417.694 349.783 417.464C349.999 416.167 348.457 415.187 347.362 415.072C347.132 415.043 347.103 415.418 347.319 415.475Z" fill="#49161A"/>
</g>
<path d="M436.676 546.951C436.676 546.951 478.156 553.882 492.866 550.02C507.577 546.173 472.033 494.622 472.033 494.622C472.033 494.622 455.046 492.058 453.317 492C451.588 491.957 436.676 548.176 436.676 548.176" fill="white"/>
<path d="M453.707 667.297C454.571 672.066 458.346 678.751 458.346 678.751L458.058 688.865L452.655 691.272L437.383 678.002C437.383 678.002 436.461 670.323 436.734 670.495L453.707 667.297Z" fill="#FE9C70"/>
<path d="M463.059 696.876C461.978 698.605 450.178 699.642 447.282 701.314C444.401 702.971 437.73 707.668 430.684 708.863C423.639 710.059 412.747 709.584 410.355 707.581C407.992 705.578 409.75 704.671 409.75 704.671C409.75 704.671 409.591 703.965 409.606 703.143C409.62 702.38 409.764 701.515 410.34 700.953C411.493 699.815 418.02 697.049 422.357 693.404C426.679 689.759 432.745 680.725 436.779 678.16C436.779 678.16 438.364 677.411 442.211 678.218C446.057 679.01 447.383 683.606 450.74 685.018C454.097 686.445 456.561 684.529 457.252 683.117C457.958 681.733 457.973 677.742 459.111 678.045C460.235 678.376 463.001 687.482 462.756 693.634C462.756 693.634 463.001 693.908 463.203 694.383C463.491 694.974 463.664 695.896 463.059 696.876Z" fill="#2E2F44"/>
<path d="M471.846 681.628L472.466 675.648L485.735 675.951L485.721 684.884L483.3 694.278C483.3 694.278 472.739 694.379 472.653 694.177C472.566 693.961 470.117 683.688 470.117 683.688L471.846 681.628Z" fill="#FE9C70"/>
<path d="M497.779 714.334C497.635 715.141 494.725 716.927 490.402 717.835C489.97 717.922 489.524 718.008 489.091 718.066C488.659 718.138 488.213 718.195 487.766 718.239C487.334 718.282 486.887 718.311 486.44 718.354C485.979 718.383 485.504 718.383 485.043 718.383C484.683 718.383 484.308 718.368 483.948 718.354C483.818 718.354 483.703 718.354 483.573 718.339C483.055 718.311 482.536 718.267 482.003 718.195C481.599 718.152 481.196 718.08 480.792 718.008C480.432 717.95 480.072 717.864 479.712 717.792C479.308 717.734 478.905 717.619 478.516 717.489C477.752 717.288 476.989 717.043 476.211 716.74C476.211 716.74 474.871 716.207 475.087 713.959C474.626 712.908 474.467 711.51 474.813 709.522C475.908 703.009 469.54 703.888 467.854 696.958C467.523 695.647 467.854 694.595 468.258 693.702C468.243 693.443 468.229 693.169 468.214 692.91C468.013 686.743 469.943 681.167 471.845 681.628C471.845 681.628 470.433 684.337 471.629 686.124C472.825 687.924 473.545 685.504 477.32 684.38C481.066 683.271 485.619 684.106 486.959 685.85C488.313 687.593 489.293 691.642 490.446 696.065C491.598 700.474 496.857 706.222 497.506 709.205C497.678 710.04 497.722 710.862 497.678 711.539C497.664 711.697 497.635 711.856 497.621 711.986C497.635 712.144 497.65 712.288 497.664 712.403C497.779 713.196 497.923 713.47 497.779 714.334Z" fill="#2E2F44"/>
<path d="M508.026 490.78C507.594 505.894 501.961 558.368 500.217 571.94C499.338 596.375 486.948 679.854 486.948 679.854C475.868 682.188 471.488 678.86 471.488 678.86C471.488 678.86 472.036 668.198 470.84 652.84C468.78 626.531 465.048 587.5 469.687 572.43C470.336 569.303 469.558 565.831 468.823 562.099C464.428 539.637 462.166 503.632 462.166 503.632C459.213 513.3 450.899 536.223 445.338 548.167C441.606 556.192 443.494 560.947 443.494 560.947C443.494 560.947 449.315 578.899 450.366 586.045C452.571 600.885 452.167 631.113 452.83 651.514C453.133 660.663 455.063 671.815 455.063 671.815C445.252 677.319 436.967 674.423 436.967 674.423C436.967 674.423 408.973 580.44 408.973 553.555C408.973 550.991 410.111 536.309 410.111 536.252C414.087 502.422 424.562 460.149 426.363 454.242C429.749 455.28 444.2 457.47 458.046 457.945C473.217 458.464 495.621 456.749 507.09 454.242C511.744 463.982 508.271 482.51 508.026 490.78Z" fill="#75AAF5"/>
<path d="M463.059 696.883C461.978 698.612 450.178 699.65 447.282 701.321C444.401 702.978 437.73 707.675 430.684 708.871C423.639 710.066 412.747 709.591 410.355 707.588C407.992 705.586 409.75 704.678 409.75 704.678C409.75 704.678 409.591 703.972 409.606 703.151C410.124 703.367 410.686 703.741 411.479 704.087C414.101 705.225 416.838 705.211 419.677 705.225C423.812 705.254 428.004 705.283 432.01 704.231C435.612 703.28 438.897 701.494 442.283 699.981C448.752 697.099 455.653 695.226 462.698 694.434C462.871 694.419 463.044 694.391 463.217 694.391C463.491 694.981 463.664 695.903 463.059 696.883Z" fill="white"/>
<path d="M497.783 714.331C497.639 715.138 494.729 716.924 490.406 717.832C489.974 717.918 489.528 718.005 489.095 718.062C488.663 718.134 488.216 718.192 487.77 718.235C487.338 718.278 486.891 718.307 486.444 718.35C485.983 718.379 485.508 718.379 485.047 718.379C484.686 718.379 484.312 718.365 483.952 718.35C483.822 718.35 483.707 718.351 483.577 718.336C483.058 718.307 482.54 718.264 482.007 718.192C481.603 718.149 481.2 718.077 480.796 718.005C480.436 717.947 480.076 717.861 479.716 717.789C479.312 717.731 478.909 717.616 478.52 717.486C477.756 717.284 476.993 717.039 476.215 716.737C476.215 716.737 474.875 716.204 475.091 713.956C474.63 712.904 474.471 711.507 474.817 709.518C475.912 703.006 469.544 703.885 467.858 696.955C467.527 695.644 467.858 694.592 468.262 693.699C468.247 693.439 468.233 693.166 468.218 692.906C469.486 695.658 469.371 697.747 472.497 699.894C474.788 701.479 477.483 703.136 478.016 705.873C478.549 708.582 476.978 712.17 479.24 713.726C482.151 715.714 486.531 715.08 489.772 714.518C492.611 713.999 495.161 712.861 497.668 711.55C497.654 711.708 497.625 711.867 497.61 711.997C497.625 712.155 497.639 712.299 497.654 712.414C497.783 713.192 497.927 713.466 497.783 714.331Z" fill="white"/>
<path d="M481.872 697.68C483.068 696.931 484.178 696.168 485.59 695.865C487.03 695.548 488.284 695.966 489.696 695.995C490.243 696.009 490.344 695.318 489.955 695.029C487.506 693.243 482.852 694.77 481.339 697.162C481.138 697.479 481.541 697.882 481.872 697.68Z" fill="white"/>
<path d="M484.598 701.714C486.471 700.302 488.56 699.942 490.793 700.561C491.586 700.778 491.831 699.668 491.125 699.366C488.719 698.343 485.779 699.121 484.094 701.066C483.82 701.397 484.194 702.017 484.598 701.714Z" fill="white"/>
<path d="M423.714 691.987C425.27 692.131 426.365 692.203 427.619 693.284C428.353 693.917 428.93 695.056 429.953 695.113C430.154 695.128 430.27 694.94 430.299 694.768C430.443 693.5 428.454 692.044 427.475 691.468C426.336 690.805 424.651 690.301 423.512 691.151C423.138 691.439 423.267 691.944 423.714 691.987Z" fill="white"/>
<path d="M427.01 687.205C428.393 687.666 429.748 688.069 430.9 688.991C431.923 689.813 432.413 691.124 433.407 691.887C433.739 692.147 434.229 692.003 434.243 691.542C434.286 690.115 432.773 688.718 431.722 687.911C430.425 686.931 428.783 686.182 427.111 686.311C426.621 686.369 426.506 687.046 427.01 687.205Z" fill="white"/>
<path d="M398.02 406.156L410.036 428.416C411.505 428.69 412.874 428.705 414.156 428.517C422.268 427.35 426.922 418.331 427.253 417.596C428.679 414.426 430.855 409.773 433.347 404.528C441.574 387.196 453.302 363.221 453.302 363.221L422.124 330.789C422.124 330.789 414.747 337.532 411.347 353.856C410.756 356.781 408.119 368.379 405.209 380.871C404.445 384.084 403.552 387.469 402.659 390.682C402.4 391.547 402.169 392.411 401.924 393.247C399.893 400.408 398.02 406.156 398.02 406.156Z" fill="white"/>
<path d="M468.026 470.384C468.026 470.384 471.844 545.967 471.844 546.011C471.902 547.149 487.044 549.93 488.183 550.175C494.018 551.442 499.882 552.509 505.789 553.344C511.884 554.209 518.18 556.283 524.332 555.16C522.704 555.462 521.249 519.86 521.191 516.734C520.96 503.421 520.73 489.892 517.272 476.94C514.578 466.825 509.665 463.699 499.738 461.12C494.508 459.751 489.047 458.858 483.644 458.469L468.012 469.116L468.026 470.384Z" fill="white"/>
<path d="M407.688 428.765C396.133 429.399 383.411 425.841 372.836 423.651C362.246 421.461 356.324 419.141 356.324 419.141C356.324 419.141 358.197 417.513 358.874 412.369C359.537 407.37 358.111 404.503 358.111 404.503C358.111 404.503 388.742 403.177 400.988 401.203L419.575 426.503C416.39 427.8 412.313 428.506 407.688 428.765Z" fill="white"/>
<path d="M419.922 391.644C420.181 395.016 420.455 398.416 420.743 401.802C421.103 406.153 421.463 410.49 421.824 414.783C423.452 434.047 420.656 443.325 419.878 466.32C422.904 466.493 425.944 466.666 428.97 466.839C444.876 467.761 460.797 468.683 476.703 469.591C479.772 469.764 516.771 469.749 517.03 473.639C516.411 464.404 515.791 455.183 515.186 445.947C514.207 431.251 513.227 416.498 514.034 401.787C514.653 390.448 516.296 379.182 516.44 367.814C516.555 358.737 516.454 345.813 511.238 338.004C505.461 329.359 486.788 321.968 483.662 321.349C457.987 316.205 434.33 321.104 422.083 330.757C416.565 337.125 417.717 363.347 419.922 391.644Z" fill="white"/>
<path d="M483.442 325.039C483.947 327.416 484.364 329.808 484.753 332.214C485.157 334.606 485.503 337.012 485.82 339.432L485.848 339.677L485.661 339.879C483.529 342.17 481.324 344.403 479.12 346.608L479.033 345.858L482.895 348.581C484.177 349.504 485.445 350.44 486.698 351.405C485.301 350.671 483.932 349.878 482.563 349.1L478.5 346.68L477.996 346.377L478.414 345.93C480.532 343.625 482.664 341.32 484.84 339.087L484.681 339.533C484.393 337.127 484.134 334.721 483.946 332.315C483.716 329.895 483.543 327.474 483.442 325.039Z" fill="#C5C8D3"/>
<path d="M479.584 502.475C483.013 502.489 486.456 502.518 489.885 502.605C493.242 502.691 496.859 503.21 500.187 502.777C500.374 502.749 500.461 502.461 500.23 502.403C497.089 501.726 493.588 501.971 490.375 501.913C486.773 501.841 483.186 501.827 479.584 501.841C479.18 501.87 479.18 502.475 479.584 502.475Z" fill="#C5C8D3"/>
<path d="M479.108 503.024C479.396 505.545 479.525 509.493 481.831 511.15C482.911 511.928 484.294 512.043 485.577 512.129C487.839 512.274 490.144 512.245 492.406 512.245C494.899 512.245 497.852 512.072 499.552 509.983C501.324 507.807 500.82 504.609 500.143 502.116C500.042 501.77 499.567 501.929 499.624 502.26C500.057 505.041 500.806 508.412 498.054 510.343C496.224 511.625 493.703 511.481 491.57 511.452C489.337 511.423 487.032 511.582 484.813 511.337C480.462 510.862 480.159 506.482 479.727 503.009C479.684 502.635 479.064 502.62 479.108 503.024Z" fill="#C5C8D3"/>
<path d="M478.5 503.611C478.731 510.57 479.019 517.587 479.783 524.517C479.955 526.102 480.186 527.643 481.468 528.724C483.341 530.28 486.353 530.381 488.643 530.222C492.447 529.963 498.484 529.372 500.703 525.698C501.812 523.854 501.827 521.577 501.74 519.503C501.596 516.218 501.409 512.89 501.063 509.619C501.02 509.244 500.458 509.23 500.458 509.619C500.501 513.956 501.697 518.998 500.703 523.263C499.536 528.277 492.923 528.997 488.643 529.271C485.704 529.459 481.742 529.257 480.863 525.785C480.287 523.508 480.359 520.886 480.143 518.552C479.696 513.581 479.336 508.596 479.033 503.611C479.019 503.265 478.486 503.265 478.5 503.611Z" fill="#C5C8D3"/>
<path d="M422.447 424.26C423.542 412.964 422.13 401.87 420.66 390.675C419.954 385.316 419.277 379.956 418.917 374.567C418.528 368.747 419.003 362.969 418.83 357.148C418.83 356.961 418.556 356.918 418.499 357.105C415.848 367.479 418.139 379.552 419.493 389.998C420.963 401.337 422.634 412.791 422.23 424.26C422.216 424.418 422.432 424.404 422.447 424.26Z" fill="#C5C8D3"/>
<path d="M417.167 375.601C416.043 372.748 414.271 369.406 411.461 367.893C411.26 367.792 410.986 368.008 411.13 368.224C411.995 369.463 413.147 370.457 414.069 371.639C415.063 372.921 416.058 374.304 416.864 375.716C416.951 375.889 417.239 375.774 417.167 375.601Z" fill="#C5C8D3"/>
<path d="M444.43 322.789C442.255 325.253 440.223 327.832 438.379 330.526C436.535 333.22 434.863 336.044 433.725 339.07L433.639 338.594C435.281 340.381 436.852 342.211 438.465 344.026L438.869 344.473L438.365 344.804L430.066 350.308L430.311 349.703C430.973 352.829 431.564 355.956 432.155 359.097C432.731 362.238 433.322 365.364 433.797 368.534C434.287 371.689 434.734 374.845 435.108 378.014C435.44 381.184 435.771 384.368 435.814 387.567C435.497 384.397 435.051 381.242 434.532 378.101C434.042 374.96 433.495 371.819 432.89 368.692L431.103 359.313L429.172 349.962L429.086 349.573L429.417 349.357L437.788 343.94L437.687 344.718C436.103 342.874 434.503 341.073 432.947 339.214L432.76 338.998L432.861 338.753C434.143 335.655 435.93 332.846 437.889 330.195C439.921 327.572 442.067 325.065 444.43 322.789Z" fill="#C5C8D3"/>
<path d="M468.028 470.386C468.028 470.386 458.462 471.352 448.563 470.386C443.91 469.925 438.68 468.701 438.68 468.701C438.68 468.701 441.489 398.621 442.022 367.947C442.383 347.963 444.889 334.117 447.944 326.524C449.024 323.772 450.206 321.856 451.373 320.718C451.647 320.43 451.935 320.199 452.223 320.041L452.295 319.983C460.263 315.214 479.022 320.545 479.022 320.545C479.022 320.545 476.731 325.17 475.319 329.838C475.103 330.573 474.915 331.308 474.742 332.028C472.567 341.595 472.408 345.413 469.858 372.658C467.308 399.918 468.028 470.386 468.028 470.386Z" fill="#75AAF5"/>
<path d="M479.007 320.539C479.007 320.539 476.717 325.164 475.305 329.818C466.631 332.844 461.603 333.636 455.09 332.455C451.301 331.763 448.751 329.213 447.93 326.519C449.01 323.767 450.192 321.836 451.373 320.712C451.705 320.482 451.978 320.251 452.223 320.035L452.281 319.963C452.555 319.718 452.742 319.516 452.771 319.271C453.016 317.932 453.088 317.326 453.03 316.649C453.001 316.102 452.915 315.511 452.785 314.445C452.555 311.779 452.238 308.84 452.238 308.84L457.007 305.728L475.55 287.344L475.866 293.453C475.866 293.453 475.593 311.203 477.797 318.839C477.999 319.516 478.402 320.165 479.007 320.539Z" fill="#FE9C70"/>
<path d="M466.24 302.492C466.24 302.492 464.9 311.18 453.042 316.669C453.014 316.122 452.927 315.531 452.798 314.465C452.567 311.8 452.25 308.86 452.25 308.86L457.019 305.748L466.24 302.492Z" fill="#F28A61"/>
<path d="M421.967 378.391C421.967 378.391 417.587 378.837 419.201 389.802C420.541 398.907 421.448 400.708 424.748 401.933C428.047 403.158 432.831 398.518 432.787 398.288C432.744 398.057 432.283 388.764 431.952 387.684C431.62 386.603 430.064 384.24 429.43 383.649C428.796 383.059 424.69 379.788 424.69 379.788L423.523 378.981C423.523 378.981 422.529 378.607 421.967 378.391Z" fill="#E0E0E0"/>
<path d="M456.991 388.875L452.942 413.57C438.577 406.338 423.492 397.131 413.349 391.022C406.246 386.757 399.82 383.026 399.82 383.026C399.82 383.026 398.956 381.974 400.829 377.133C401.953 374.165 404.099 374.338 404.099 374.338C404.099 374.338 429.299 380.85 450.666 386.959C453.072 387.651 455.146 388.299 456.991 388.875Z" fill="#FE9C70"/>
<path d="M513.228 347.631C514.049 353.322 513.199 359.964 513.041 364.589C512.94 367.673 512.695 370.785 511.859 373.767C510.418 378.867 507.306 383.305 504.252 387.627C500.405 393.074 496.284 398.361 492.351 403.678C489.297 407.813 486.934 414.786 482.309 417.552C477.223 421.169 472.094 423.805 459.155 418.792C446.044 413.734 424.749 401.949 424.749 401.949C427.818 400.595 428.279 391.244 426.81 385.495C425.153 379.026 422.084 378.507 421.969 378.406C421.969 378.406 462.339 388.636 462.383 388.636C462.383 388.636 472.655 370.9 473.606 369.373C478.145 362.068 482.698 354.749 487.236 347.444C491.991 339.793 500.03 330.918 509.093 338.742C511.528 340.831 512.709 344.044 513.228 347.631Z" fill="white"/>
<path d="M445.034 278.22C445.581 281.462 444.414 284.776 442.642 287.542C441.388 289.502 439.948 287.254 437.657 286.836C434.127 286.188 433.738 281.505 433.565 271.362C431.922 267.054 432.384 260.744 432.801 260.11C434.271 257.833 437.743 257.156 440.423 257.459" fill="#191C26"/>
<path d="M452.396 312.2C454.082 312.229 457.771 311.119 458.606 310.817C462.28 309.477 468.317 305.428 469.196 302.172C465.479 304.203 458.635 307.791 452.281 308.367C452.296 309.491 452.353 311.148 452.396 312.2Z" fill="#F28A61"/>
<path d="M472.679 301.986C471.181 303.369 468.789 304.752 465.994 306.02C459.813 308.786 451.672 310.904 446.86 310.717C442.235 310.529 438.993 302.375 436.299 293.355C435.91 292.03 435.579 290.647 435.334 289.249C433.043 276.325 436.847 261.01 442.451 255.319C448.027 249.628 455.044 245.68 463.184 244.772C475.546 243.403 479.018 256.342 479.696 266.139C480.445 276.93 481.324 294.032 472.679 301.986Z" fill="#FE9C70"/>
<path d="M444.012 282.109C444.228 284.443 443.825 286.734 443.147 288.939C443.047 289.212 442.975 289.472 442.831 289.803L442.499 290.524C442.456 290.624 442.427 290.711 442.413 290.754C442.398 290.768 442.398 290.754 442.398 290.783C442.398 290.826 442.586 290.985 442.845 291.172C443.81 291.95 444.531 292.901 444.977 293.996C444.07 293.275 443.147 292.613 442.24 292.123C442.024 292.008 441.678 291.907 441.347 291.474C441.188 291.258 441.102 290.97 441.102 290.696C441.102 290.452 441.159 290.264 441.202 290.091C441.303 289.76 441.433 289.486 441.534 289.241C441.606 289.054 441.692 288.766 441.764 288.506C442.47 286.374 443.104 284.256 444.012 282.109Z" fill="#EF8359"/>
<path d="M473.995 264.125C471.156 266.992 450.51 267.511 443.493 265.609C437.312 263.938 432.745 261.157 429.691 255.38C428.668 253.435 427.702 251.36 427.731 249.155C427.76 246.951 429.114 244.631 431.275 244.185C430.44 245.222 431.448 246.879 432.745 247.182C434.042 247.484 435.353 246.893 436.563 246.317C442.758 243.407 449.228 240.669 456.071 240.223C464.053 239.69 480.536 245.237 477.813 256.071" fill="#191C26"/>
<path d="M468.573 260.105C466.685 261.906 465.994 264.615 465.619 267.194C465.057 271.084 465.029 275.176 466.556 278.792C466.988 279.829 466.959 284.743 467.78 284.541C468.04 284.483 468.313 280.68 469.149 278.691C470.446 275.608 475.301 274.801 477.261 276.977C480.402 280.449 478.082 284.152 476.756 286.457C475.95 287.855 474.754 289.396 474.437 290.923C474.033 292.869 473.371 300.029 474.523 301.816C475.474 303.314 477.189 296.629 478.269 295.375C486.294 286.039 495.314 261.301 483.485 254.774C481.684 253.78 475.964 252.872 474.12 253.78" fill="#191C26"/>
<path d="M464.961 287.463C464.961 287.463 467.454 286.512 468.995 281.383" stroke="white" stroke-width="0.6182" stroke-miterlimit="10"/>
<path d="M474.758 288.227C474.758 288.227 474.066 299.695 469.254 302.908" stroke="white" stroke-width="0.6182" stroke-miterlimit="10"/>
<path d="M470.015 302.869C470.015 302.869 468.661 304.353 466.01 306.025C462.221 308.445 455.795 311.269 446.876 310.722C442.252 310.534 439.01 302.38 436.315 293.36C435.926 292.035 439.312 287.871 444.787 287.612C450.579 287.367 455.953 293.014 465.376 286.805C465.362 286.819 466.514 298.028 470.015 302.869Z" fill="white"/>
<path d="M456.441 337.952C457.06 354.161 450.534 371.767 433.187 375.974C423.476 378.323 415.724 375.196 406.835 371.609C401.216 369.347 394.963 368.266 389.113 366.652C377.558 363.454 367.328 368.036 359.865 377.185C355.932 382.011 353.771 387.861 350.428 393.048C345.385 400.857 338.772 404.545 329.623 405.366C328.73 405.453 328.73 406.677 329.623 406.749C344.391 407.916 351.134 396.837 357.387 385.325C361.436 377.876 367.933 370.715 376.348 368.223C381.52 366.696 386.476 368.237 391.447 369.649C395.438 370.787 399.559 371.465 403.506 372.689C411.056 375.038 417.223 378.928 425.406 378.856C431.558 378.813 437.696 377.098 442.869 373.727C454.769 365.946 458.299 351.38 457.507 337.938C457.449 337.289 456.412 337.289 456.441 337.952Z" fill="#2E2F44"/>
<path d="M420.512 454.229C420.512 454.229 412.314 519.453 407.199 551.972L429.762 547.347C429.762 547.347 437.095 499.657 438.738 467.398C439.53 451.693 420.512 454.229 420.512 454.229Z" fill="white"/>
<path d="M409.979 375.945C409.979 375.945 404.043 373.279 401.018 370.528C397.992 367.776 394.88 364.75 393.857 364.332C392.834 363.914 388.728 362.92 388.051 362.949C387.359 362.963 387.532 365.24 388.944 365.989C391.163 367.171 391.739 367.574 392.344 368.121C393.194 368.899 391.508 368.683 388.627 367.646C386.667 366.94 381.034 362.69 378.628 362.56C376.222 362.416 378.282 365.24 379.867 366.609C381.452 367.977 385.933 371.133 385.933 371.133C385.933 371.133 386.48 373.942 386.912 374.605C387.345 375.268 386.797 376.55 386.941 377.688C387.085 378.826 387.489 379.662 387.575 380.21C387.662 380.757 387.762 382.774 388.67 383.365C389.592 383.956 401.306 383.812 402.574 384.561C403.842 385.296 409.979 375.945 409.979 375.945Z" fill="#FE9C70"/>
<path d="M473.113 282.407C471.601 281.975 471.125 283.761 471.154 284.914C471.183 286.139 472.364 286.801 473.358 285.951C474.237 285.188 474.324 283.199 473.589 282.306C473.329 281.989 472.941 281.816 472.537 281.931C471.903 282.104 471.701 282.839 471.586 283.401C471.341 284.539 471.485 286.225 473.027 286.254C474.626 286.283 474.28 284.28 473.963 283.315C473.791 282.796 473.574 282.032 473.056 281.744C472.523 281.456 471.975 281.787 471.658 282.22C471.01 283.156 470.578 285.346 471.658 286.139C472.638 286.859 474.035 286.038 474.352 285C474.655 283.977 474.079 281.557 472.825 281.355C471.442 281.139 471.096 283.487 471.082 284.41C471.067 285.663 471.889 286.931 473.272 286.888C474.828 286.845 474.9 285.159 474.741 283.977C474.569 282.724 473.286 281.067 471.918 282.133C470.995 282.854 471.053 284.64 471.572 285.577C472.278 286.859 473.69 286.297 474.252 285.216C474.799 284.165 475.159 282.234 473.92 281.499C472.436 280.62 471.111 282.378 471.183 283.732C471.24 284.77 472.278 287.767 473.69 286.066C474.756 284.784 474.266 282.724 473.229 281.6C473.027 281.384 472.609 281.37 472.407 281.6C471.673 282.465 471.298 283.603 471.586 284.741C471.788 285.548 472.537 286.47 473.474 286.254C474.367 286.038 474.713 284.842 474.698 284.049C474.684 283.156 474.266 282.349 473.358 282.104C473.041 282.018 472.753 282.205 472.638 282.508C472.335 283.343 472.551 284.208 473.2 284.813C473.474 285.072 473.906 285.015 474.122 284.698C474.453 284.179 474.756 283.545 474.482 282.926C474.252 282.436 473.719 282.104 473.171 282.248C471.889 282.594 472.177 284.539 472.667 285.389C472.912 285.807 473.416 285.721 473.675 285.389C474.237 284.64 474.453 283.675 474.194 282.767C474.007 282.104 473.373 281.341 472.595 281.629C471.846 281.903 471.673 282.911 471.745 283.603C471.831 284.424 472.278 285.072 472.941 285.548C473.171 285.721 473.632 285.605 473.747 285.332C474.237 284.165 475.044 280.808 472.796 280.908C470.967 280.981 470.678 283.833 471.961 284.784C473.402 285.85 474.886 283.257 473.819 282.191C473.373 281.744 472.407 281.686 472.148 282.349C471.874 283.026 472.494 283.646 473.142 283.646C473.675 283.646 473.805 282.825 473.272 282.695C473.272 282.681 473.272 282.666 473.272 282.652C473.142 282.782 472.998 282.926 472.868 283.055C473.013 282.94 473.041 283.012 472.969 283.257C473.027 283.675 472.868 283.732 472.479 283.459C472.249 283.228 472.278 282.047 472.768 282.104C473.632 282.22 472.912 284.338 472.739 284.741C473.013 284.669 473.272 284.597 473.546 284.525C473.243 284.309 473.041 284.006 472.955 283.646C472.941 283.56 472.883 282.854 472.969 282.882C473.142 282.911 473.142 283.574 473.142 283.675C473.113 284.107 472.926 284.453 472.681 284.784C473.013 284.784 473.358 284.784 473.69 284.784C473.502 284.467 473.517 284.265 473.43 283.92C473.445 283.804 473.459 283.704 473.474 283.588C473.358 283.747 473.243 283.92 473.142 284.093C473.445 284.049 473.747 284.021 474.064 283.977C473.704 283.632 473.632 283.271 473.791 282.81C473.546 282.94 473.315 283.084 473.07 283.214C473.675 283.372 473.791 284.813 473.185 284.943C472.71 285.044 472.652 284.179 472.667 283.833C472.681 283.3 472.897 282.81 473.243 282.421C472.969 282.421 472.696 282.421 472.422 282.421C472.926 282.983 473.185 283.689 473.099 284.438C473.085 284.568 472.998 285.288 472.811 285.245C472.667 285.216 472.422 284.165 472.393 284.006C472.321 283.632 472.278 283.199 472.494 282.854C472.739 282.465 473.33 282.176 473.574 282.738C473.776 283.185 473.56 283.934 473.402 284.352C473.301 284.626 473.157 285.058 472.811 285.058C472.465 285.044 472.465 284.683 472.422 284.381C472.379 284.107 472.321 283.675 472.422 283.415C472.609 282.94 473.085 282.839 473.416 283.315C473.675 283.689 474.007 285.274 473.56 285.677C472.84 286.311 472.191 285.015 472.162 284.525C472.148 284.193 472.278 282.421 472.811 282.58C472.955 282.623 473.243 283.473 473.257 283.545C473.416 284.006 473.531 284.597 473.185 285C473.041 285.173 472.724 285.389 472.479 285.36C471.918 285.303 471.99 284.64 472.033 284.251C472.062 283.963 472.105 283.531 472.235 283.257C472.263 282.954 472.436 282.781 472.782 282.753C472.912 282.998 473.013 283.243 473.099 283.502C473.214 283.833 473.373 284.266 473.344 284.611C473.301 285.346 472.638 285.591 472.35 284.77C472.206 284.381 472.292 283.675 472.465 283.3C472.609 282.983 472.868 282.493 473.099 283.055C473.329 283.632 473.315 284.813 472.854 285.26C472.551 285.577 472.249 285.533 471.961 285.144C471.932 284.914 471.932 284.698 471.946 284.467C471.975 283.977 472.076 282.897 472.897 283.055C473.373 283.199 473.574 282.537 473.113 282.407Z" fill="#2E2F44"/>
<path d="M473.431 284.609C477.811 285.07 480.562 285.272 482.032 290.2C482.709 292.49 482.58 295.213 482.781 297.591C483.213 302.504 483.775 307.503 483.502 312.445C482.911 322.934 478.646 333.034 467.711 336.06C458.187 338.682 446.445 337.183 440.667 328.308C434.746 319.231 436.95 309.002 436.763 298.887C436.748 298.398 436.013 298.268 435.884 298.772C432.93 310.068 433.017 325.326 442.411 333.769C450.22 340.785 463.806 340.987 472.825 336.29C483.905 330.527 485.965 316.868 485.504 305.63C485.144 296.899 486.801 280.143 473.286 283.615C472.71 283.759 472.897 284.552 473.431 284.609Z" fill="#2E2F44"/>
<path d="M459.899 339.398C460.072 339.398 460.072 339.125 459.899 339.125C459.726 339.125 459.726 339.398 459.899 339.398Z" fill="#2E2F44"/>
<path d="M462.384 388.832C463.479 390.676 464.819 392.347 465.828 394.234C466.808 396.093 467.168 397.937 467.658 399.954C467.759 400.343 468.277 400.214 468.306 399.868C468.753 395.603 465.727 391.339 462.975 388.37C462.687 388.039 462.154 388.457 462.384 388.832Z" fill="#C5C8D3"/>
<path d="M464.436 386.731C465.949 387.798 472.317 391.183 470.473 393.633C470.675 393.604 470.877 393.575 471.093 393.561C470.603 393.157 470.228 392.667 469.81 392.192C469.652 392.019 469.436 392.206 469.465 392.394C469.594 393.157 469.969 393.59 470.545 394.108C470.689 394.238 470.949 394.281 471.093 394.108C473.701 390.982 466.986 387.02 464.825 386.069C464.379 385.881 464.033 386.443 464.436 386.731Z" fill="#C5C8D3"/>
<path d="M472.524 423.892C472.812 433.805 473.777 443.689 474.152 453.601C474.541 463.543 474.527 473.484 474.426 483.425C474.238 503.308 473.835 523.22 476.111 543.002C476.14 543.261 476.558 543.275 476.529 543.002C474.267 523.22 474.656 503.294 474.829 483.425C475.016 463.629 474.844 443.617 472.927 423.892C472.884 423.647 472.509 423.633 472.524 423.892Z" fill="#C5C8D3"/>
<path d="M436.373 411.175C436.344 433.017 437.641 454.816 434.788 476.529C431.878 498.659 428.967 520.789 425.956 542.905C425.913 543.237 426.374 543.309 426.417 542.963C429.284 521.034 432.339 499.135 435.22 477.206C438.087 455.306 437.151 433.204 436.589 411.16C436.575 411.045 436.373 411.031 436.373 411.175Z" fill="#C5C8D3"/>
<path d="M398.683 401.807C402.184 401.966 405.584 402.643 408.942 403.623C409.114 403.666 409.172 403.421 409.014 403.363C405.685 402.038 402.242 401.476 398.683 401.461C398.453 401.447 398.467 401.793 398.683 401.807Z" fill="#C5C8D3"/>
<path d="M467.581 422.341C476.413 425.439 485.274 417.644 489.769 410.873C493.068 405.902 495.907 400.643 499.264 395.701C503.211 389.924 507.591 384.492 511.928 379.003C512.058 378.844 511.842 378.614 511.698 378.772C504.436 386.365 498.342 395.168 492.924 404.159C490.23 408.654 487.665 413.437 483.646 416.91C479.539 420.468 473.214 423.436 467.783 421.534C467.293 421.376 467.077 422.168 467.581 422.341Z" fill="#C5C8D3"/>
<path d="M494.031 340.432C498.123 336.196 502.979 335.375 508.583 335.75C508.987 335.778 509.044 335.173 508.67 335.058C503.31 333.315 497.158 335.995 493.527 339.942C493.253 340.274 493.729 340.749 494.031 340.432Z" fill="#C5C8D3"/>
<path d="M490.475 342.199C489.078 342.848 488.314 344.087 488.328 345.614C488.328 345.989 488.847 346.046 488.962 345.7C489.308 344.62 490.072 343.539 490.965 342.833C491.34 342.531 490.864 342.026 490.475 342.199Z" fill="#C5C8D3"/>
<path d="M468.977 376.162C471.988 373.035 473.948 369.39 475.893 365.543C478.169 361.048 480.604 357.374 483.889 353.556C484.148 353.267 483.817 352.749 483.442 352.979C475.849 357.907 474.293 369.102 468.545 375.744C468.3 376.032 468.703 376.45 468.977 376.162Z" fill="#C5C8D3"/>
<path d="M358.484 407.282C357.159 407.051 355.675 406.042 354.565 405.452C353.182 404.717 351.814 403.924 350.43 403.204C345.906 400.856 340.244 401.029 335.893 403.636C335.533 403.852 335.158 404.126 335.1 404.544C335 405.336 336.051 405.668 336.829 405.697C338.702 405.769 340.532 406.071 342.405 406.187C342.693 408.449 344.105 410.451 345.906 411.791C347.707 413.145 349.854 413.895 352.015 414.428C354.018 414.918 356.064 415.235 358.11 415.364C358.931 413.405 359.09 411.316 359.162 409.183C359.162 409.054 359.003 407.31 358.859 407.31C358.686 407.325 358.657 407.31 358.484 407.282Z" fill="#FE9C70"/>
<g opacity="0.2">
<path d="M338.775 406.234C340.806 406.479 342.924 406.536 344.523 407.991C345.633 409 346.425 410.441 347.491 411.507C348.774 412.775 350.229 413.827 352.059 413.971C352.333 413.985 352.347 413.61 352.116 413.524C348.601 412.184 347.275 409.663 344.696 407.213C343.025 405.629 340.95 405.946 338.76 405.974C338.602 405.989 338.616 406.219 338.775 406.234Z" fill="#49161A"/>
</g>
<g opacity="0.2">
<path d="M336.793 403.215C339.429 401.803 343.291 401.4 346.23 401.933C346.417 401.962 346.489 401.717 346.302 401.645C345.063 401.169 343.319 401.443 342.037 401.558C340.179 401.731 338.32 402.12 336.706 403.086C336.663 403.143 336.721 403.259 336.793 403.215Z" fill="#49161A"/>
</g>
<path d="M401.592 400.075C402.514 399.83 403.45 399.614 404.416 399.643C405.309 399.672 406.116 400.003 406.995 400.104C407.369 400.147 407.6 399.571 407.312 399.34C405.727 398.029 402.917 398.289 401.289 399.355C400.915 399.6 401.145 400.19 401.592 400.075Z" fill="#C5C8D3"/>
<path d="M452.655 279.947C451.488 280.293 451.46 281.834 451.56 282.857C451.661 283.938 452.036 284.874 453.232 284.99C453.549 285.018 453.952 284.788 454.096 284.5C454.73 283.174 454.759 281.806 454.024 280.48C453.851 280.149 453.361 279.933 453.001 280.062C452.411 280.278 452.151 280.595 452.079 281.215C451.993 281.978 453.088 282.353 453.563 281.834C453.592 281.777 453.635 281.734 453.707 281.719C453.289 281.604 452.886 281.503 452.468 281.388C452.67 281.705 452.828 282.022 452.857 282.396C452.872 282.612 452.9 283.145 452.756 283.304C453.044 283.232 453.333 283.146 453.621 283.073C453.39 282.973 453.462 283.03 453.822 283.261C453.779 283.131 453.765 282.987 453.765 282.857C453.75 282.555 453.765 282.252 453.794 281.95C453.866 281.258 454.024 280.739 453.506 280.177C453.289 279.947 452.944 279.86 452.655 279.947Z" fill="#191C26"/>
<path d="M439.173 281.448C437.545 281.721 437.66 285.64 439.403 285.583C440.325 285.554 440.614 284.401 440.714 283.666C440.83 282.845 440.57 281.678 439.792 281.217C437.718 279.949 437.026 284.416 438.568 285.352C439.576 285.972 440.441 284.949 440.599 284.027C440.786 283.032 440.556 281.851 439.706 281.231C439.057 280.77 438.179 281.534 438.395 282.24C438.467 282.514 438.625 282.73 438.712 282.989C438.784 283.205 438.712 283.436 438.755 283.623C438.625 284.027 438.957 284.099 439.763 283.854C439.72 283.695 439.691 283.537 439.706 283.364C439.706 283.205 439.706 283.032 439.735 282.874C439.85 282.571 439.807 282.543 439.634 282.816C439.389 282.845 439.144 282.874 438.899 282.917C438.683 282.859 438.827 282.831 438.913 283.047C438.971 283.191 439.043 283.321 439.072 283.493C439.129 283.724 439.115 284.156 439.014 284.214C439.202 284.185 439.403 284.171 439.591 284.142C439.85 284.214 439.634 283.897 439.619 283.738C439.591 283.493 439.605 283.22 439.619 282.975C439.663 282.557 439.821 282.197 439.691 281.779C439.634 281.505 439.403 281.404 439.173 281.448Z" fill="#191C26"/>
<path d="M451.627 276.228C454.379 273.851 458.139 275.45 460.992 276.401C461.439 276.545 461.799 275.925 461.453 275.608C458.845 273.26 453.486 272.842 451.108 275.724C450.835 276.084 451.281 276.545 451.627 276.228Z" fill="#191C26"/>
<path d="M441.321 275.569C439.808 273.826 434.967 273.322 433.814 275.756C433.742 275.915 433.829 276.146 434.03 276.131C435.183 276.03 436.148 275.353 437.33 275.295C438.655 275.223 439.765 275.728 440.989 276.131C441.335 276.246 441.522 275.814 441.321 275.569Z" fill="#191C26"/>
<path d="M451.86 463.131C452.148 468.894 452.983 474.729 453.761 480.435C454.309 484.512 456.24 486.99 459.208 489.757C459.712 490.218 460.461 489.483 459.957 489.008C458.487 487.596 456.874 486.155 455.908 484.325C454.611 481.89 454.669 478.864 454.352 476.199C453.819 471.819 453.43 467.381 452.594 463.03C452.508 462.627 451.845 462.728 451.86 463.131Z" fill="#40507F"/>
<path d="M438.88 460.463C440.869 461.357 442.843 461.789 444.989 462.178C447.482 462.624 449.888 463.46 452.395 463.806C457.452 464.498 462.639 463.575 467.682 463.201C468.517 463.143 468.532 461.846 467.682 461.89C462.682 462.149 457.668 463.1 452.654 462.466C448.231 461.904 443.477 460.881 439.154 459.801C438.78 459.7 438.491 460.29 438.88 460.463Z" fill="#40507F"/>
<path d="M458.187 465.02C457.726 472.412 459.009 480.206 459.772 487.554C460.176 491.329 460.593 495.104 461.054 498.879C461.386 501.66 461.213 505.19 462.524 507.696C462.596 507.841 462.841 507.812 462.884 507.653C463.605 504.642 462.423 500.795 462.063 497.726C461.616 493.937 461.199 490.148 460.81 486.344C460.075 479.255 459.959 471.979 458.893 464.934C458.821 464.502 458.202 464.631 458.187 465.02Z" fill="#40507F"/>
</g>
</g>
<defs>
<filter id="filter0_d_620_5623" x="0" y="-5" width="790" height="790" filterUnits="userSpaceOnUse" color-interpolation-filters="sRGB">
<feFlood flood-opacity="0" result="BackgroundImageFix"/>
<feColorMatrix in="SourceAlpha" type="matrix" values="0 0 0 0 0 0 0 0 0 0 0 0 0 0 0 0 0 0 127 0" result="hardAlpha"/>
<feOffset dx="-4"/>
<feGaussianBlur stdDeviation="2.5"/>
<feComposite in2="hardAlpha" operator="out"/>
<feColorMatrix type="matrix" values="0 0 0 0 0 0 0 0 0 0 0 0 0 0 0 0 0 0 0.09 0"/>
<feBlend mode="normal" in2="BackgroundImageFix" result="effect1_dropShadow_620_5623"/>
<feBlend mode="normal" in="SourceGraphic" in2="effect1_dropShadow_620_5623" result="shape"/>
</filter>
<linearGradient id="paint0_linear_620_5623" x1="207.944" y1="116.033" x2="245.715" y2="377.958" gradientUnits="userSpaceOnUse">
<stop stop-color="white"/>
<stop offset="1" stop-color="white" stop-opacity="0"/>
</linearGradient>
<clipPath id="clip0_620_5623">
<rect x="9" width="780" height="780" rx="18" fill="white"/>
</clipPath>
</defs>
</svg>
