<svg width="13" height="13" viewBox="0 0 13 13" fill="none" xmlns="http://www.w3.org/2000/svg">
<path fill-rule="evenodd" clip-rule="evenodd" d="M6.5 13C10.0899 13 13 10.0899 13 6.5C13 2.91015 10.0899 0 6.5 0C2.91015 0 0 2.91015 0 6.5C0 10.0899 2.91015 13 6.5 13ZM7.42856 5.57142H9.2857C9.53197 5.57142 9.76816 5.66926 9.9423 5.8434C10.1164 6.01754 10.2143 6.25372 10.2143 6.49999C10.2143 6.74627 10.1164 6.98245 9.9423 7.15659C9.76816 7.33073 9.53197 7.42856 9.2857 7.42856H7.42856V9.2857C7.42856 9.53197 7.33073 9.76816 7.15659 9.9423C6.98245 10.1164 6.74627 10.2143 6.49999 10.2143C6.25372 10.2143 6.01754 10.1164 5.8434 9.9423C5.66926 9.76816 5.57142 9.53197 5.57142 9.2857V7.42856H3.71428C3.46801 7.42856 3.23183 7.33073 3.05769 7.15659C2.88355 6.98245 2.78571 6.74627 2.78571 6.49999C2.78571 6.25372 2.88355 6.01754 3.05769 5.8434C3.23183 5.66926 3.46801 5.57142 3.71428 5.57142H5.57142V3.71428C5.57142 3.46801 5.66926 3.23183 5.8434 3.05769C6.01754 2.88355 6.25372 2.78571 6.49999 2.78571C6.74627 2.78571 6.98245 2.88355 7.15659 3.05769C7.33073 3.23183 7.42856 3.46801 7.42856 3.71428V5.57142Z" fill="#90CC6A"/>
</svg>
