<svg width="82" height="91" viewBox="0 0 82 91" fill="none" xmlns="http://www.w3.org/2000/svg">
<g filter="url(#filter0_dd_748_6003)">
<path d="M12.5 43C12.5 25.0507 27.0507 10.5 45 10.5H88.5V75.5H45C27.0507 75.5 12.5 60.9493 12.5 43Z" fill="#3A4BB6" stroke="#838383"/>
<g clip-path="url(#clip0_748_6003)">
<path d="M56.3019 57.9356C54.6024 57.9356 52.9411 57.4127 51.528 56.433C50.115 55.4534 49.0136 54.0609 48.3632 52.4317C47.7129 50.8026 47.5427 49.0099 47.8743 47.2804C48.2058 45.5509 49.0242 43.9623 50.2259 42.7154C51.4276 41.4685 52.9587 40.6194 54.6255 40.2753C56.2924 39.9313 58.0201 40.1079 59.5902 40.7827C61.1603 41.4575 62.5023 42.6003 63.4465 44.0665C64.3907 45.5327 64.8947 47.2564 64.8947 49.0198C64.8921 51.3836 63.9859 53.6498 62.375 55.3213C60.7641 56.9927 58.58 57.9329 56.3019 57.9356ZM56.3019 42.6514C55.088 42.6514 53.9013 43.0249 52.892 43.7247C51.8827 44.4244 51.096 45.4191 50.6314 46.5827C50.1669 47.7464 50.0453 49.0269 50.2822 50.2622C50.519 51.4976 51.1035 52.6323 51.9619 53.523C52.8203 54.4136 53.9139 55.0202 55.1045 55.2659C56.2951 55.5116 57.5292 55.3855 58.6507 54.9035C59.7722 54.4215 60.7308 53.6052 61.4052 52.5579C62.0796 51.5106 62.4396 50.2794 62.4396 49.0198C62.4376 47.3314 61.7904 45.7128 60.6398 44.5189C59.4891 43.325 57.9291 42.6534 56.3019 42.6514ZM58.3973 51.194C58.6274 50.9552 58.7567 50.6312 58.7567 50.2935C58.7567 49.9558 58.6274 49.6319 58.3973 49.393L57.5294 48.4925V46.4725C57.5294 46.1347 57.4001 45.8107 57.1699 45.5718C56.9397 45.333 56.6275 45.1988 56.3019 45.1988C55.9763 45.1988 55.6641 45.333 55.4339 45.5718C55.2037 45.8107 55.0744 46.1347 55.0744 46.4725V49.0198C55.0744 49.3576 55.2038 49.6815 55.434 49.9203L56.6616 51.194C56.8918 51.4328 57.2039 51.5669 57.5294 51.5669C57.8549 51.5669 58.1671 51.4328 58.3973 51.194ZM37.8889 56.6619C37.892 54.3216 38.6434 52.0486 40.0254 50.1991C41.4074 48.3495 43.3418 47.0281 45.5254 46.4419C45.6827 46.4049 45.8315 46.3362 45.9632 46.2395C46.0949 46.1429 46.207 46.0203 46.2931 45.8787C46.3791 45.7372 46.4375 45.5794 46.4648 45.4144C46.4921 45.2495 46.4878 45.0805 46.4522 44.9173C46.4165 44.754 46.3503 44.5997 46.2571 44.463C46.164 44.3263 46.0459 44.21 45.9094 44.1207C45.773 44.0314 45.6209 43.9709 45.4619 43.9426C45.3029 43.9142 45.1401 43.9187 44.9828 43.9557C42.2467 44.6523 39.8164 46.2848 38.084 48.5901C36.3516 50.8953 35.418 53.7388 35.4338 56.6619C35.4338 56.9997 35.5631 57.3237 35.7933 57.5626C36.0235 57.8014 36.3358 57.9356 36.6613 57.9356C36.9869 57.9356 37.2991 57.8014 37.5293 57.5626C37.7595 57.3237 37.8889 56.9997 37.8889 56.6619ZM45.8359 41.3777C44.5006 41.3777 43.1953 40.9669 42.085 40.1971C40.9748 39.4274 40.1094 38.3333 39.5984 37.0533C39.0874 35.7732 38.9537 34.3647 39.2142 33.0058C39.4747 31.6469 40.1177 30.3987 41.0619 29.419C42.0061 28.4393 43.2091 27.7721 44.5188 27.5018C45.8284 27.2315 47.1859 27.3702 48.4196 27.9004C49.6533 28.4306 50.7077 29.3285 51.4496 30.4805C52.1914 31.6325 52.5874 32.9869 52.5874 34.3725C52.5854 36.2297 51.8735 38.0104 50.6078 39.3237C49.3421 40.637 47.6259 41.3757 45.8359 41.3777ZM45.8359 29.9146C44.9862 29.9146 44.1555 30.176 43.449 30.6659C42.7425 31.1557 42.1918 31.8519 41.8666 32.6665C41.5414 33.4811 41.4563 34.3774 41.6221 35.2421C41.7879 36.1069 42.1971 36.9012 42.7979 37.5247C43.3988 38.1481 44.1643 38.5727 44.9978 38.7447C45.8312 38.9167 46.695 38.8284 47.4801 38.491C48.2651 38.1536 48.9361 37.5822 49.4082 36.8491C49.8803 36.116 50.1323 35.2541 50.1323 34.3725C50.1323 33.1901 49.6797 32.0563 48.8739 31.2202C48.0682 30.3842 46.9754 29.9146 45.8359 29.9146Z" fill="white"/>
</g>
</g>
<defs>
<filter id="filter0_dd_748_6003" x="0" y="0" width="99" height="91" filterUnits="userSpaceOnUse" color-interpolation-filters="sRGB">
<feFlood flood-opacity="0" result="BackgroundImageFix"/>
<feColorMatrix in="SourceAlpha" type="matrix" values="0 0 0 0 0 0 0 0 0 0 0 0 0 0 0 0 0 0 127 0" result="hardAlpha"/>
<feOffset dx="-4" dy="-2"/>
<feGaussianBlur stdDeviation="4"/>
<feComposite in2="hardAlpha" operator="out"/>
<feColorMatrix type="matrix" values="0 0 0 0 0 0 0 0 0 0 0 0 0 0 0 0 0 0 0.12 0"/>
<feBlend mode="normal" in2="BackgroundImageFix" result="effect1_dropShadow_748_6003"/>
<feColorMatrix in="SourceAlpha" type="matrix" values="0 0 0 0 0 0 0 0 0 0 0 0 0 0 0 0 0 0 127 0" result="hardAlpha"/>
<feOffset dy="5"/>
<feGaussianBlur stdDeviation="5"/>
<feComposite in2="hardAlpha" operator="out"/>
<feColorMatrix type="matrix" values="0 0 0 0 0 0 0 0 0 0 0 0 0 0 0 0 0 0 0.15 0"/>
<feBlend mode="normal" in2="effect1_dropShadow_748_6003" result="effect2_dropShadow_748_6003"/>
<feBlend mode="normal" in="SourceGraphic" in2="effect2_dropShadow_748_6003" result="shape"/>
</filter>
<clipPath id="clip0_748_6003">
<rect width="29.4609" height="30.5684" fill="white" transform="translate(35.4336 27.3672)"/>
</clipPath>
</defs>
</svg>
