<svg width="24" height="24" viewBox="0 0 24 24" fill="none" xmlns="http://www.w3.org/2000/svg">
<g clip-path="url(#clip0_164_3141)">
<path d="M19 5H16V4C16 3.20435 15.6839 2.44129 15.1213 1.87868C14.5587 1.31607 13.7956 1 13 1H11C10.2044 1 9.44129 1.31607 8.87868 1.87868C8.31607 2.44129 8 3.20435 8 4V5H5C3.6744 5.00159 2.40356 5.52888 1.46622 6.46622C0.528882 7.40356 0.00158786 8.6744 0 10L0 18C0.00158786 19.3256 0.528882 20.5964 1.46622 21.5338C2.40356 22.4711 3.6744 22.9984 5 23H19C20.3256 22.9984 21.5964 22.4711 22.5338 21.5338C23.4711 20.5964 23.9984 19.3256 24 18V10C23.9984 8.6744 23.4711 7.40356 22.5338 6.46622C21.5964 5.52888 20.3256 5.00159 19 5V5ZM10 4C10 3.73478 10.1054 3.48043 10.2929 3.29289C10.4804 3.10536 10.7348 3 11 3H13C13.2652 3 13.5196 3.10536 13.7071 3.29289C13.8946 3.48043 14 3.73478 14 4V5H10V4ZM22 18C22 18.7956 21.6839 19.5587 21.1213 20.1213C20.5587 20.6839 19.7956 21 19 21H5C4.20435 21 3.44129 20.6839 2.87868 20.1213C2.31607 19.5587 2 18.7956 2 18V10C2 9.20435 2.31607 8.44129 2.87868 7.87868C3.44129 7.31607 4.20435 7 5 7H19C19.7956 7 20.5587 7.31607 21.1213 7.87868C21.6839 8.44129 22 9.20435 22 10V18ZM16 14C16 14.2652 15.8946 14.5196 15.7071 14.7071C15.5196 14.8946 15.2652 15 15 15H13V17C13 17.2652 12.8946 17.5196 12.7071 17.7071C12.5196 17.8946 12.2652 18 12 18C11.7348 18 11.4804 17.8946 11.2929 17.7071C11.1054 17.5196 11 17.2652 11 17V15H9C8.73478 15 8.48043 14.8946 8.29289 14.7071C8.10536 14.5196 8 14.2652 8 14C8 13.7348 8.10536 13.4804 8.29289 13.2929C8.48043 13.1054 8.73478 13 9 13H11V11C11 10.7348 11.1054 10.4804 11.2929 10.2929C11.4804 10.1054 11.7348 10 12 10C12.2652 10 12.5196 10.1054 12.7071 10.2929C12.8946 10.4804 13 10.7348 13 11V13H15C15.2652 13 15.5196 13.1054 15.7071 13.2929C15.8946 13.4804 16 13.7348 16 14Z" fill="#108EFF"/>
</g>
<defs>
<clipPath id="clip0_164_3141">
<rect width="24" height="24" fill="white"/>
</clipPath>
</defs>
</svg>
