<svg xmlns="http://www.w3.org/2000/svg" width="24" height="24" viewBox="0 0 24 24">
    <g fill="none" fill-rule="evenodd">
        <g fill-rule="nonzero">
            <g>
                <g>
                    <path fill="#FFF" d="M19.5 24h-15C2.015 24 0 21.985 0 19.5v-15C0 2.015 2.015 0 4.5 0h15C21.985 0 24 2.015 24 4.5v15c0 2.485-2.015 4.5-4.5 4.5z" transform="translate(-442 -8082) translate(0 6947) translate(442 1135)"/>
                    <g fill="#EDECF5">
                        <path d="M1.625.015H.375C.168.015 0 .183 0 .39v1.25c0 .208.168.376.375.376h1.25c.207 0 .375-.168.375-.375V.39c0-.208-.168-.376-.375-.376zM1.625 3.015H.375c-.207 0-.375.168-.375.375v1.25c0 .208.168.376.375.376h1.25c.207 0 .375-.168.375-.375V3.39c0-.208-.168-.376-.375-.376zM5.125.015h-1.25C3.667.015 3.5.183 3.5.39v1.25c0 .208.167.376.375.376h1.25c.207 0 .375-.168.375-.375V.39c0-.208-.168-.376-.375-.376z" transform="translate(-442 -8082) translate(0 6947) translate(442 1135) translate(7.5 11.484)"/>
                    </g>
                    <path fill="#9FA7D1" d="M12.625 14.5h-1.25c-.208 0-.375.168-.375.375v1.25c0 .207.167.375.375.375h1.25c.207 0 .375-.168.375-.375v-1.25c0-.207-.168-.375-.375-.375z" transform="translate(-442 -8082) translate(0 6947) translate(442 1135)"/>
                    <path fill="#EDECF5" d="M16.125 11.5h-1.25c-.207 0-.375.168-.375.375v1.25c0 .207.168.375.375.375h1.25c.207 0 .375-.168.375-.375v-1.25c0-.207-.168-.375-.375-.375z" transform="translate(-442 -8082) translate(0 6947) translate(442 1135)"/>
                    <path fill="#9FA7D1" d="M16.5 7.5h-9C6.673 7.5 6 8.173 6 9v7.5c0 .827.673 1.5 1.5 1.5h9c.827 0 1.5-.673 1.5-1.5V9c0-.827-.673-1.5-1.5-1.5zm.5 9c0 .276-.224.5-.5.5h-9c-.276 0-.5-.224-.5-.5v-5.48h10v5.48z" transform="translate(-442 -8082) translate(0 6947) translate(442 1135)"/>
                    <path fill="#EDECF5" d="M9 6h-.5c-.276 0-.5.224-.5.5v2c0 .276.223.5.5.5H9c.276 0 .5-.223.5-.5v-2c0-.276-.224-.5-.5-.5zM15.5 6H15c-.276 0-.5.224-.5.5v2c0 .276.224.5.5.5h.5c.276 0 .5-.224.5-.5v-2c0-.276-.224-.5-.5-.5z" transform="translate(-442 -8082) translate(0 6947) translate(442 1135)"/>
                </g>
            </g>
        </g>
    </g>
</svg>
