<svg width="17" height="16" viewBox="0 0 17 16" fill="none" xmlns="http://www.w3.org/2000/svg">
<path d="M9.16795 0.667731C9.16795 0.49092 9.23819 0.321351 9.36321 0.196327C9.48823 0.0713025 9.6578 0.00106465 9.83461 0.00106465C11.6021 0.00300571 13.2967 0.706008 14.5465 1.95583C15.7963 3.20565 16.4993 4.90022 16.5013 6.66773C16.5013 6.84454 16.431 7.01411 16.306 7.13914C16.181 7.26416 16.0114 7.3344 15.8346 7.3344C15.6578 7.3344 15.4882 7.26416 15.3632 7.13914C15.2382 7.01411 15.1679 6.84454 15.1679 6.66773C15.1664 5.25373 14.6039 3.8981 13.6041 2.89825C12.6042 1.8984 11.2486 1.33599 9.83461 1.3344C9.6578 1.3344 9.48823 1.26416 9.36321 1.13914C9.23819 1.01411 9.16795 0.844542 9.16795 0.667731ZM9.83461 4.00107C10.5419 4.00107 11.2201 4.28202 11.7202 4.78211C12.2203 5.28221 12.5013 5.96049 12.5013 6.66773C12.5013 6.84454 12.5715 7.01411 12.6965 7.13914C12.8216 7.26416 12.9911 7.3344 13.1679 7.3344C13.3448 7.3344 13.5143 7.26416 13.6393 7.13914C13.7644 7.01411 13.8346 6.84454 13.8346 6.66773C13.8336 5.60719 13.4118 4.59039 12.6619 3.84047C11.912 3.09056 10.8952 2.66879 9.83461 2.66773C9.6578 2.66773 9.48823 2.73797 9.36321 2.86299C9.23819 2.98802 9.16795 3.15759 9.16795 3.3344C9.16795 3.51121 9.23819 3.68078 9.36321 3.8058C9.48823 3.93083 9.6578 4.00107 9.83461 4.00107ZM15.8966 11.1604C16.2829 11.5478 16.4999 12.0726 16.4999 12.6197C16.4999 13.1669 16.2829 13.6917 15.8966 14.0791L15.2899 14.7784C9.82995 20.0057 -3.4567 6.7224 1.68996 1.24506L2.45662 0.578398C2.84447 0.202849 3.36458 -0.00490264 3.90442 8.7873e-05C4.44427 0.00507838 4.96045 0.22241 5.34129 0.605065C5.36195 0.625731 6.59729 2.2304 6.59729 2.2304C6.96384 2.61548 7.16789 3.12702 7.16702 3.65867C7.16615 4.19032 6.96043 4.70118 6.59262 5.08507L5.82062 6.05573C6.24785 7.09381 6.87599 8.03723 7.66896 8.8318C8.46192 9.62636 9.40407 10.2564 10.4413 10.6857L11.4179 9.90907C11.8019 9.54154 12.3127 9.33606 12.8441 9.33532C13.3756 9.33457 13.887 9.53862 14.2719 9.90507C14.2719 9.90507 15.8759 11.1397 15.8966 11.1604ZM14.9793 12.1297C14.9793 12.1297 13.3839 10.9024 13.3633 10.8817C13.2259 10.7456 13.0404 10.6691 12.8469 10.6691C12.6535 10.6691 12.468 10.7456 12.3306 10.8817C12.3126 10.9004 10.9679 11.9717 10.9679 11.9717C10.8773 12.0439 10.7695 12.0911 10.655 12.1089C10.5406 12.1267 10.4235 12.1143 10.3153 12.0731C8.97159 11.5728 7.75111 10.7896 6.73651 9.77645C5.72191 8.76335 4.93689 7.54402 4.43462 6.20107C4.39009 6.09137 4.37557 5.97179 4.39256 5.85462C4.40955 5.73746 4.45743 5.62693 4.53129 5.5344C4.53129 5.5344 5.60262 4.18906 5.62062 4.17173C5.7568 4.03439 5.83321 3.84881 5.83321 3.6554C5.83321 3.46199 5.7568 3.27641 5.62062 3.13906C5.59995 3.11906 4.37262 1.5224 4.37262 1.5224C4.23322 1.3974 4.05129 1.33046 3.86412 1.3353C3.67695 1.34013 3.49872 1.41637 3.36596 1.5484L2.59929 2.21507C-1.16204 6.73773 10.3519 17.6131 14.3153 13.8677L14.9226 13.1677C15.0649 13.0359 15.1504 12.8539 15.161 12.6602C15.1716 12.4665 15.1064 12.2763 14.9793 12.1297Z" fill="#108EFF"/>
</svg>
