<svg width="188" height="30" viewBox="0 0 188 30" fill="none" xmlns="http://www.w3.org/2000/svg">
<path d="M21.9248 21L21.9088 13.576L18.2288 19.72H17.3008L13.6208 13.672V21H11.6368V9.8H13.3488L17.7968 17.224L22.1648 9.8H23.8768L23.8928 21H21.9248ZM34.7581 16.776C34.7581 16.9147 34.7474 17.112 34.7261 17.368H28.0221C28.1394 17.9973 28.4434 18.4987 28.9341 18.872C29.4354 19.2347 30.0541 19.416 30.7901 19.416C31.7287 19.416 32.5021 19.1067 33.1101 18.488L34.1821 19.72C33.7981 20.1787 33.3127 20.5253 32.7261 20.76C32.1394 20.9947 31.4781 21.112 30.7421 21.112C29.8034 21.112 28.9767 20.9253 28.2621 20.552C27.5474 20.1787 26.9927 19.6613 26.5981 19C26.2141 18.328 26.0221 17.5707 26.0221 16.728C26.0221 15.896 26.2087 15.1493 26.5821 14.488C26.9661 13.816 27.4941 13.2933 28.1661 12.92C28.8381 12.5467 29.5954 12.36 30.4381 12.36C31.2701 12.36 32.0114 12.5467 32.6621 12.92C33.3234 13.2827 33.8354 13.8 34.1981 14.472C34.5714 15.1333 34.7581 15.9013 34.7581 16.776ZM30.4381 13.96C29.7981 13.96 29.2541 14.152 28.8061 14.536C28.3687 14.9093 28.1021 15.4107 28.0061 16.04H32.8541C32.7687 15.4213 32.5074 14.92 32.0701 14.536C31.6327 14.152 31.0887 13.96 30.4381 13.96ZM45.0472 9.128V21H43.1272V19.896C42.7965 20.3013 42.3859 20.6053 41.8952 20.808C41.4152 21.0107 40.8819 21.112 40.2952 21.112C39.4739 21.112 38.7325 20.9307 38.0712 20.568C37.4205 20.2053 36.9085 19.6933 36.5352 19.032C36.1619 18.36 35.9752 17.592 35.9752 16.728C35.9752 15.864 36.1619 15.1013 36.5352 14.44C36.9085 13.7787 37.4205 13.2667 38.0712 12.904C38.7325 12.5413 39.4739 12.36 40.2952 12.36C40.8605 12.36 41.3779 12.456 41.8472 12.648C42.3165 12.84 42.7165 13.128 43.0472 13.512V9.128H45.0472ZM40.5352 19.4C41.0152 19.4 41.4472 19.2933 41.8312 19.08C42.2152 18.856 42.5192 18.5413 42.7432 18.136C42.9672 17.7307 43.0792 17.2613 43.0792 16.728C43.0792 16.1947 42.9672 15.7253 42.7432 15.32C42.5192 14.9147 42.2152 14.6053 41.8312 14.392C41.4472 14.168 41.0152 14.056 40.5352 14.056C40.0552 14.056 39.6232 14.168 39.2392 14.392C38.8552 14.6053 38.5512 14.9147 38.3272 15.32C38.1032 15.7253 37.9912 16.1947 37.9912 16.728C37.9912 17.2613 38.1032 17.7307 38.3272 18.136C38.5512 18.5413 38.8552 18.856 39.2392 19.08C39.6232 19.2933 40.0552 19.4 40.5352 19.4ZM47.6636 12.456H49.6636V21H47.6636V12.456ZM48.6716 11.048C48.3089 11.048 48.0049 10.936 47.7596 10.712C47.5142 10.4773 47.3916 10.1893 47.3916 9.848C47.3916 9.50667 47.5142 9.224 47.7596 9C48.0049 8.76533 48.3089 8.648 48.6716 8.648C49.0342 8.648 49.3382 8.76 49.5836 8.984C49.8289 9.19733 49.9516 9.46933 49.9516 9.8C49.9516 10.152 49.8289 10.4507 49.5836 10.696C49.3489 10.9307 49.0449 11.048 48.6716 11.048ZM56.2086 21.112C55.3232 21.112 54.5286 20.9253 53.8246 20.552C53.1206 20.1787 52.5712 19.6613 52.1766 19C51.7819 18.328 51.5846 17.5707 51.5846 16.728C51.5846 15.8853 51.7819 15.1333 52.1766 14.472C52.5712 13.8107 53.1152 13.2933 53.8086 12.92C54.5126 12.5467 55.3126 12.36 56.2086 12.36C57.0512 12.36 57.7872 12.5307 58.4166 12.872C59.0566 13.2133 59.5366 13.704 59.8566 14.344L58.3206 15.24C58.0752 14.8453 57.7659 14.552 57.3926 14.36C57.0299 14.1573 56.6299 14.056 56.1926 14.056C55.4459 14.056 54.8272 14.3013 54.3366 14.792C53.8459 15.272 53.6006 15.9173 53.6006 16.728C53.6006 17.5387 53.8406 18.1893 54.3206 18.68C54.8112 19.16 55.4352 19.4 56.1926 19.4C56.6299 19.4 57.0299 19.304 57.3926 19.112C57.7659 18.9093 58.0752 18.6107 58.3206 18.216L59.8566 19.112C59.5259 19.752 59.0406 20.248 58.4006 20.6C57.7712 20.9413 57.0406 21.112 56.2086 21.112ZM64.8494 12.36C66.1081 12.36 67.0681 12.664 67.7294 13.272C68.4014 13.8693 68.7374 14.776 68.7374 15.992V21H66.8494V19.96C66.6041 20.3333 66.2521 20.6213 65.7934 20.824C65.3454 21.016 64.8014 21.112 64.1614 21.112C63.5214 21.112 62.9614 21.0053 62.4814 20.792C62.0014 20.568 61.6281 20.264 61.3614 19.88C61.1054 19.4853 60.9774 19.0427 60.9774 18.552C60.9774 17.784 61.2601 17.1707 61.8254 16.712C62.4014 16.2427 63.3028 16.008 64.5294 16.008H66.7374V15.88C66.7374 15.2827 66.5561 14.824 66.1934 14.504C65.8414 14.184 65.3134 14.024 64.6094 14.024C64.1294 14.024 63.6548 14.0987 63.1854 14.248C62.7268 14.3973 62.3374 14.6053 62.0174 14.872L61.2334 13.416C61.6814 13.0747 62.2201 12.8133 62.8494 12.632C63.4788 12.4507 64.1454 12.36 64.8494 12.36ZM64.5774 19.656C65.0788 19.656 65.5214 19.544 65.9054 19.32C66.3001 19.0853 66.5774 18.7547 66.7374 18.328V17.336H64.6734C63.5214 17.336 62.9454 17.7147 62.9454 18.472C62.9454 18.8347 63.0894 19.1227 63.3774 19.336C63.6654 19.5493 64.0654 19.656 64.5774 19.656ZM71.3042 9.128H73.3042V21H71.3042V9.128ZM90.4951 9.8V21H88.4151V16.2H82.6231V21H80.5431V9.8H82.6231V14.424H88.4151V9.8H90.4951ZM93.3042 12.456H95.3042V21H93.3042V12.456ZM94.3122 11.048C93.9495 11.048 93.6455 10.936 93.4002 10.712C93.1549 10.4773 93.0322 10.1893 93.0322 9.848C93.0322 9.50667 93.1549 9.224 93.4002 9C93.6455 8.76533 93.9495 8.648 94.3122 8.648C94.6749 8.648 94.9789 8.76 95.2242 8.984C95.4695 9.19733 95.5922 9.46933 95.5922 9.8C95.5922 10.152 95.4695 10.4507 95.2242 10.696C94.9895 10.9307 94.6855 11.048 94.3122 11.048ZM100.569 21.112C99.8759 21.112 99.1985 21.0213 98.5372 20.84C97.8759 20.6587 97.3479 20.4293 96.9532 20.152L97.7212 18.632C98.1052 18.888 98.5639 19.096 99.0972 19.256C99.6412 19.4053 100.175 19.48 100.697 19.48C101.892 19.48 102.489 19.1653 102.489 18.536C102.489 18.2373 102.335 18.0293 102.025 17.912C101.727 17.7947 101.241 17.6827 100.569 17.576C99.8652 17.4693 99.2892 17.3467 98.8412 17.208C98.4039 17.0693 98.0199 16.8293 97.6892 16.488C97.3692 16.136 97.2092 15.6507 97.2092 15.032C97.2092 14.2213 97.5452 13.576 98.2172 13.096C98.8999 12.6053 99.8172 12.36 100.969 12.36C101.556 12.36 102.143 12.4293 102.729 12.568C103.316 12.696 103.796 12.872 104.169 13.096L103.401 14.616C102.676 14.1893 101.86 13.976 100.953 13.976C100.367 13.976 99.9185 14.0667 99.6092 14.248C99.3105 14.4187 99.1612 14.648 99.1612 14.936C99.1612 15.256 99.3212 15.4853 99.6412 15.624C99.9719 15.752 100.479 15.8747 101.161 15.992C101.844 16.0987 102.404 16.2213 102.841 16.36C103.279 16.4987 103.652 16.7333 103.961 17.064C104.281 17.3947 104.441 17.864 104.441 18.472C104.441 19.272 104.095 19.912 103.401 20.392C102.708 20.872 101.764 21.112 100.569 21.112ZM111.3 20.536C111.065 20.728 110.777 20.872 110.436 20.968C110.105 21.064 109.753 21.112 109.38 21.112C108.441 21.112 107.716 20.8667 107.204 20.376C106.692 19.8853 106.436 19.1707 106.436 18.232V14.12H105.028V12.52H106.436V10.568H108.436V12.52H110.724V14.12H108.436V18.184C108.436 18.6 108.537 18.92 108.74 19.144C108.942 19.3573 109.236 19.464 109.62 19.464C110.068 19.464 110.441 19.3467 110.74 19.112L111.3 20.536ZM116.504 21.112C115.64 21.112 114.861 20.9253 114.168 20.552C113.474 20.1787 112.93 19.6613 112.536 19C112.152 18.328 111.96 17.5707 111.96 16.728C111.96 15.8853 112.152 15.1333 112.536 14.472C112.93 13.8107 113.474 13.2933 114.168 12.92C114.861 12.5467 115.64 12.36 116.504 12.36C117.378 12.36 118.162 12.5467 118.856 12.92C119.549 13.2933 120.088 13.8107 120.472 14.472C120.866 15.1333 121.064 15.8853 121.064 16.728C121.064 17.5707 120.866 18.328 120.472 19C120.088 19.6613 119.549 20.1787 118.856 20.552C118.162 20.9253 117.378 21.112 116.504 21.112ZM116.504 19.4C117.24 19.4 117.848 19.1547 118.328 18.664C118.808 18.1733 119.048 17.528 119.048 16.728C119.048 15.928 118.808 15.2827 118.328 14.792C117.848 14.3013 117.24 14.056 116.504 14.056C115.768 14.056 115.16 14.3013 114.68 14.792C114.21 15.2827 113.976 15.928 113.976 16.728C113.976 17.528 114.21 18.1733 114.68 18.664C115.16 19.1547 115.768 19.4 116.504 19.4ZM124.88 13.704C125.456 12.808 126.469 12.36 127.92 12.36V14.264C127.749 14.232 127.595 14.216 127.456 14.216C126.677 14.216 126.069 14.4453 125.632 14.904C125.195 15.352 124.976 16.0027 124.976 16.856V21H122.976V12.456H124.88V13.704ZM137.929 12.456L133.929 21.688C133.556 22.616 133.103 23.2667 132.569 23.64C132.036 24.024 131.391 24.216 130.633 24.216C130.207 24.216 129.785 24.1467 129.369 24.008C128.953 23.8693 128.612 23.6773 128.345 23.432L129.145 21.96C129.337 22.1413 129.561 22.2853 129.817 22.392C130.084 22.4987 130.351 22.552 130.617 22.552C130.969 22.552 131.257 22.4613 131.481 22.28C131.716 22.0987 131.929 21.7947 132.121 21.368L132.265 21.032L128.537 12.456H130.617L133.305 18.776L136.009 12.456H137.929Z" fill="#3A4BB6"/>
<g clip-path="url(#clip0_500_4602)">
<path d="M177.168 19.9974H174.668V17.4974C174.668 17.2764 174.58 17.0644 174.424 16.9081C174.268 16.7519 174.056 16.6641 173.835 16.6641C173.614 16.6641 173.402 16.7519 173.245 16.9081C173.089 17.0644 173.001 17.2764 173.001 17.4974V19.9974H170.501C170.28 19.9974 170.068 20.0852 169.912 20.2415C169.756 20.3978 169.668 20.6097 169.668 20.8307C169.668 21.0517 169.756 21.2637 169.912 21.42C170.068 21.5763 170.28 21.6641 170.501 21.6641H173.001V24.1641C173.001 24.3851 173.089 24.597 173.245 24.7533C173.402 24.9096 173.614 24.9974 173.835 24.9974C174.056 24.9974 174.268 24.9096 174.424 24.7533C174.58 24.597 174.668 24.3851 174.668 24.1641V21.6641H177.168C177.389 21.6641 177.601 21.5763 177.757 21.42C177.914 21.2637 178.001 21.0517 178.001 20.8307C178.001 20.6097 177.914 20.3978 177.757 20.2415C177.601 20.0852 177.389 19.9974 177.168 19.9974Z" fill="#3A4BB6"/>
<path d="M167.166 10.8333V14.655L164.911 16.9108C164.831 16.9877 164.768 17.0797 164.724 17.1813C164.68 17.283 164.657 17.3923 164.656 17.503C164.655 17.6136 164.676 17.7234 164.718 17.8258C164.76 17.9282 164.822 18.0212 164.9 18.0995C164.979 18.1777 165.072 18.2396 165.174 18.2815C165.276 18.3234 165.386 18.3445 165.497 18.3435C165.607 18.3426 165.717 18.3196 165.818 18.2759C165.92 18.2322 166.012 18.1687 166.089 18.0892L168.589 15.5892C168.745 15.4329 168.833 15.221 168.833 15V10.8333C168.833 10.6123 168.745 10.4004 168.589 10.2441C168.433 10.0878 168.221 10 168 10C167.779 10 167.567 10.0878 167.411 10.2441C167.254 10.4004 167.166 10.6123 167.166 10.8333Z" fill="#3A4BB6"/>
<path d="M170.271 23.0172C168.499 23.5167 166.612 23.4142 164.904 22.726C163.196 22.0378 161.765 20.8026 160.834 19.2139C159.904 17.6253 159.527 15.7728 159.761 13.9467C159.996 12.1206 160.83 10.424 162.133 9.12254C163.435 7.82112 165.132 6.9884 166.959 6.7548C168.785 6.5212 170.637 6.89992 172.225 7.83164C173.813 8.76335 175.047 10.1954 175.734 11.9036C176.421 13.6118 176.522 15.4996 176.021 17.2714C175.988 17.3779 175.975 17.4901 175.986 17.6014C175.996 17.7127 176.029 17.8208 176.082 17.9192C176.135 18.0176 176.207 18.1043 176.294 18.1742C176.382 18.2442 176.482 18.2958 176.59 18.3261C176.697 18.3564 176.81 18.3648 176.921 18.3507C177.032 18.3366 177.138 18.3003 177.235 18.244C177.332 18.1878 177.416 18.1127 177.483 18.0231C177.55 17.9336 177.598 17.8316 177.625 17.723C178.226 15.5954 178.104 13.3284 177.279 11.2772C176.454 9.22599 174.971 7.50652 173.064 6.38811C171.157 5.2697 168.933 4.81555 166.739 5.0968C164.546 5.37805 162.509 6.37881 160.945 7.94231C159.382 9.50581 158.382 11.5437 158.101 13.7368C157.82 15.9298 158.274 18.1541 159.393 20.0613C160.511 21.9684 162.231 23.4506 164.282 24.2756C166.333 25.1007 168.6 25.222 170.728 24.6205C170.836 24.5929 170.937 24.544 171.025 24.4767C171.114 24.4094 171.188 24.3251 171.243 24.2288C171.298 24.1325 171.334 24.0261 171.348 23.9158C171.361 23.8055 171.353 23.6936 171.323 23.5867C171.292 23.4798 171.241 23.38 171.172 23.2932C171.102 23.2064 171.016 23.1343 170.919 23.0813C170.821 23.0282 170.714 22.9952 170.603 22.9842C170.493 22.9732 170.381 22.9844 170.275 23.0172H170.271Z" fill="#3A4BB6"/>
</g>
<rect x="0.5" y="0.5" width="187" height="29" rx="4.5" stroke="#3A4BB6"/>
<defs>
<clipPath id="clip0_500_4602">
<rect width="20" height="20" fill="white" transform="translate(158 5)"/>
</clipPath>
</defs>
</svg>
