<svg width="23" height="26" viewBox="0 0 23 26" fill="none" xmlns="http://www.w3.org/2000/svg">
<g id="Notification">
<path id="Vector" d="M22.809 14.7273L20.8301 7.60724C20.25 5.52137 18.9894 3.68924 17.2486 2.40208C15.5077 1.11492 13.3866 0.446593 11.2223 0.503337C9.05802 0.560081 6.97481 1.33864 5.30381 2.71525C3.63281 4.09187 2.46991 5.98754 1.99996 8.10094L0.467842 14.9908C0.298607 15.7521 0.302519 16.5417 0.479292 17.3013C0.656064 18.0608 1.00118 18.771 1.48916 19.3794C1.97715 19.9877 2.59554 20.4787 3.29867 20.8161C4.00181 21.1535 4.77175 21.3286 5.55163 21.3286H6.71192C6.95097 22.5058 7.58966 23.5642 8.51977 24.3245C9.44989 25.0847 10.6142 25.5 11.8155 25.5C13.0168 25.5 14.1811 25.0847 15.1112 24.3245C16.0413 23.5642 16.68 22.5058 16.9191 21.3286H17.7919C18.5947 21.3286 19.3867 21.1431 20.106 20.7864C20.8252 20.4297 21.4523 19.9116 21.9381 19.2724C22.424 18.6333 22.7555 17.8905 22.9067 17.102C23.058 16.3136 23.0239 15.5008 22.809 14.7273ZM11.8155 23.4117C11.1716 23.409 10.5442 23.2075 10.0191 22.8346C9.49413 22.4617 9.09715 21.9357 8.8825 21.3286H14.7485C14.5338 21.9357 14.1369 22.4617 13.6119 22.8346C13.0868 23.2075 12.4594 23.409 11.8155 23.4117ZM20.2791 18.0113C19.9889 18.3963 19.6129 18.7083 19.1809 18.9226C18.749 19.1368 18.273 19.2474 17.7909 19.2455H5.55163C5.08375 19.2454 4.62187 19.1403 4.20006 18.9378C3.77826 18.7353 3.4073 18.4407 3.11458 18.0757C2.82186 17.7107 2.61485 17.2847 2.50882 16.8289C2.40279 16.3732 2.40045 15.8995 2.50198 15.4428L4.03306 8.55193C4.40213 6.89192 5.31552 5.40292 6.62803 4.32163C7.94053 3.24034 9.57682 2.62883 11.2768 2.58429C12.9767 2.53976 14.6428 3.06476 16.0101 4.07585C17.3774 5.08693 18.3675 6.52606 18.823 8.16447L20.802 15.2845C20.9327 15.7484 20.9536 16.2363 20.8628 16.7097C20.772 17.183 20.5722 17.6287 20.2791 18.0113Z" fill="#3A4BB6"/>
</g>
</svg>
