<svg width="17" height="16" viewBox="0 0 17 16" fill="none" xmlns="http://www.w3.org/2000/svg">
<g clip-path="url(#clip0_503_4698)">
<path d="M8.5 8C9.29113 8 10.0645 7.76541 10.7223 7.32588C11.3801 6.88635 11.8928 6.26164 12.1955 5.53074C12.4983 4.79983 12.5775 3.99556 12.4231 3.21964C12.2688 2.44372 11.8878 1.73098 11.3284 1.17157C10.769 0.612165 10.0563 0.231202 9.28036 0.0768607C8.50444 -0.0774802 7.70017 0.00173314 6.96927 0.304484C6.23836 0.607234 5.61365 1.11992 5.17412 1.77772C4.7346 2.43552 4.5 3.20888 4.5 4C4.50106 5.06054 4.92283 6.07734 5.67274 6.82726C6.42266 7.57718 7.43946 7.99894 8.5 8ZM8.5 1.33334C9.02742 1.33334 9.54299 1.48973 9.98152 1.78275C10.4201 2.07577 10.7618 2.49224 10.9637 2.97951C11.1655 3.46678 11.2183 4.00296 11.1154 4.52024C11.0125 5.03753 10.7586 5.51268 10.3856 5.88562C10.0127 6.25856 9.53752 6.51254 9.02024 6.61543C8.50296 6.71832 7.96678 6.66551 7.47951 6.46368C6.99224 6.26185 6.57577 5.92005 6.28275 5.48152C5.98973 5.04299 5.83333 4.52742 5.83333 4C5.83333 3.29276 6.11428 2.61448 6.61438 2.11438C7.11448 1.61429 7.79276 1.33334 8.5 1.33334Z" fill="#108EFF"/>
<path d="M8.5 9.33594C6.90924 9.3377 5.38414 9.97041 4.25931 11.0952C3.13447 12.2201 2.50176 13.7452 2.5 15.3359C2.5 15.5127 2.57024 15.6823 2.69526 15.8073C2.82029 15.9324 2.98986 16.0026 3.16667 16.0026C3.34348 16.0026 3.51305 15.9324 3.63807 15.8073C3.7631 15.6823 3.83333 15.5127 3.83333 15.3359C3.83333 14.0983 4.325 12.9113 5.20017 12.0361C6.07534 11.1609 7.26232 10.6693 8.5 10.6693C9.73768 10.6693 10.9247 11.1609 11.7998 12.0361C12.675 12.9113 13.1667 14.0983 13.1667 15.3359C13.1667 15.5127 13.2369 15.6823 13.3619 15.8073C13.487 15.9324 13.6565 16.0026 13.8333 16.0026C14.0101 16.0026 14.1797 15.9324 14.3047 15.8073C14.4298 15.6823 14.5 15.5127 14.5 15.3359C14.4982 13.7452 13.8655 12.2201 12.7407 11.0952C11.6159 9.97041 10.0908 9.3377 8.5 9.33594Z" fill="#108EFF"/>
</g>
<defs>
<clipPath id="clip0_503_4698">
<rect width="16" height="16" fill="white" transform="translate(0.5)"/>
</clipPath>
</defs>
</svg>
