<svg width="26" height="26" viewBox="0 0 26 26" fill="none" xmlns="http://www.w3.org/2000/svg">
<g id="Ellipse 6">
<g id="Ellipse 6_2">
<path d="M26 13C26 20.1797 20.1797 26 13 26C5.8203 26 0 20.1797 0 13C0 5.8203 5.8203 0 13 0C20.1797 0 26 5.8203 26 13Z" fill="#3A4BB6"/>
<path d="M13 13C14.9581 13 16.5455 11.4126 16.5455 9.45455C16.5455 7.49644 14.9581 5.90909 13 5.90909C11.0419 5.90909 9.45455 7.49644 9.45455 9.45455C9.45455 11.4126 11.0419 13 13 13Z" fill="white"/>
<path d="M13 14.1813C10.0642 14.1845 7.68509 16.5637 7.68182 19.4995C7.68182 19.8258 7.94637 20.0904 8.27272 20.0904H17.7273C18.0536 20.0904 18.3182 19.8258 18.3182 19.4995C18.3149 16.5637 15.9358 14.1845 13 14.1813Z" fill="white"/>
</g>
</g>
</svg>
