<svg width="8" height="14" viewBox="0 0 8 14" fill="none" xmlns="http://www.w3.org/2000/svg">
<path d="M1.69169e-05 12.8789V1.70894C-0.00113818 1.51032 0.0568839 1.31585 0.166685 1.15033C0.276487 0.984808 0.433092 0.855737 0.616536 0.77957C0.79998 0.703403 1.00195 0.683592 1.1967 0.722661C1.39145 0.761731 1.57015 0.857912 1.71002 0.998941L7.29003 6.58894C7.47628 6.7763 7.58083 7.02976 7.58083 7.29394C7.58083 7.55813 7.47628 7.81158 7.29003 7.99894L1.71002 13.5889C1.57015 13.73 1.39145 13.8261 1.1967 13.8652C1.00195 13.9043 0.79998 13.8845 0.616536 13.8083C0.433092 13.7321 0.276487 13.6031 0.166685 13.4376C0.0568839 13.272 -0.00113818 13.0776 1.69169e-05 12.8789Z" fill="#4E43D6"/>
</svg>
