<svg width="22" height="22" viewBox="0 0 22 22" fill="none" xmlns="http://www.w3.org/2000/svg">
<path d="M21.7295 20.4333L16.2579 14.9618C17.749 13.1381 18.4821 10.8112 18.3056 8.46219C18.1291 6.1132 17.0565 3.92191 15.3097 2.34157C13.5629 0.761226 11.2755 -0.0872576 8.9206 -0.0283785C6.56572 0.0305007 4.32357 0.992238 2.6579 2.6579C0.992238 4.32357 0.0305007 6.56573 -0.0283785 8.9206C-0.0872576 11.2755 0.761226 13.5629 2.34157 15.3097C3.92191 17.0565 6.1132 18.1291 8.46219 18.3056C10.8112 18.4821 13.1381 17.749 14.9618 16.2579L20.4333 21.7295C20.6062 21.8965 20.8378 21.9889 21.0781 21.9868C21.3185 21.9847 21.5484 21.8883 21.7183 21.7183C21.8883 21.5484 21.9847 21.3185 21.9868 21.0781C21.9889 20.8378 21.8965 20.6062 21.7295 20.4333ZM9.16476 16.4981C7.71436 16.4981 6.29654 16.068 5.09058 15.2622C3.88462 14.4564 2.94468 13.3111 2.38964 11.9711C1.8346 10.6311 1.68937 9.15662 1.97233 7.7341C2.25529 6.31157 2.95372 5.00489 3.97931 3.97931C5.00489 2.95372 6.31157 2.25529 7.7341 1.97233C9.15662 1.68937 10.6311 1.8346 11.9711 2.38964C13.3111 2.94468 14.4564 3.88462 15.2622 5.09058C16.068 6.29654 16.4981 7.71436 16.4981 9.16476C16.4959 11.109 15.7226 12.973 14.3478 14.3478C12.973 15.7226 11.109 16.4959 9.16476 16.4981Z" fill="#3A4BB6"/>
</svg>
